<?xml version="1.0" encoding="iso-8859-1"?>
<!-- Generator: Adobe Illustrator 19.0.0, SVG Export Plug-In . SVG Version: 6.00 Build 0)  -->
<svg xmlns="http://www.w3.org/2000/svg" xmlns:xlink="http://www.w3.org/1999/xlink" version="1.1" id="Layer_1" x="0px" y="0px" viewBox="0 0 512 512" style="enable-background:new 0 0 512 512;" xml:space="preserve" width="512px" height="512px">
<g>
	<g>
		<path d="M502.337,455.685L245.158,198.506c2.918-5.219,4.478-11.12,4.478-17.264c0-9.474-3.689-18.38-10.388-25.078l-32.929-32.93    c-13.828-13.827-36.328-13.829-50.158,0l-32.929,32.929c-6.698,6.699-10.388,15.605-10.388,25.079    c0,9.473,3.689,18.38,10.388,25.078l32.929,32.93c6.914,6.914,15.996,10.371,25.079,10.371c5.956,0,11.909-1.497,17.254-4.471    l257.189,257.189c6.231,6.231,14.516,9.662,23.327,9.662c8.812,0,17.096-3.431,23.327-9.662S512,487.823,512,479.011    C512,470.2,508.569,461.916,502.337,455.685z M191.895,224.825c-5.874,5.877-15.433,5.875-21.308,0.001l-32.929-32.93    c-2.847-2.846-4.413-6.629-4.413-10.654c0-4.025,1.567-7.808,4.413-10.655l32.929-32.929c2.937-2.937,6.796-4.406,10.654-4.406    c3.858,0,7.717,1.469,10.654,4.406l32.929,32.93c2.847,2.846,4.413,6.629,4.413,10.654c0,4.025-1.567,7.809-4.413,10.654    L191.895,224.825z M487.914,487.915c-2.377,2.378-5.539,3.687-8.903,3.687c-3.363,0-6.524-1.31-8.903-3.688L213.881,231.688    l17.805-17.805l256.226,256.226c2.378,2.378,3.688,5.54,3.688,8.903C491.602,482.375,490.292,485.537,487.914,487.915z" fill="#FFFFFF"/>
	</g>
</g>
<g>
	<g>
		<path d="M351.291,170.546h-77.397c-5.633,0-10.199,4.566-10.199,10.199s4.567,10.199,10.199,10.199h77.397    c5.632,0,10.199-4.566,10.199-10.199S356.923,170.546,351.291,170.546z" fill="#FFFFFF"/>
	</g>
</g>
<g>
	<g>
		<path d="M322.592,38.897c-3.984-3.983-10.44-3.983-14.425,0L247.8,99.266c-3.983,3.983-3.983,10.441,0,14.425    c1.992,1.991,4.602,2.986,7.212,2.986c2.611,0,5.22-0.995,7.212-2.987l60.368-60.368    C326.574,49.339,326.574,42.881,322.592,38.897z" fill="#FFFFFF"/>
	</g>
</g>
<g>
	<g>
		<path d="M180.745,0.001c-5.632,0-10.199,4.566-10.199,10.199v3.06c0,5.633,4.566,10.199,10.199,10.199    c5.632,0,10.199-4.566,10.199-10.199V10.2C190.944,4.567,186.377,0.001,180.745,0.001z" fill="#FFFFFF"/>
	</g>
</g>
<g>
	<g>
		<path d="M180.745,35.698c-5.632,0-10.199,4.566-10.199,10.199v41.699c0,5.633,4.566,10.199,10.199,10.199    c5.632,0,10.199-4.566,10.199-10.199V45.897C190.944,40.264,186.377,35.698,180.745,35.698z" fill="#FFFFFF"/>
	</g>
</g>
<g>
	<g>
		<path d="M113.484,99.061L53.116,38.693c-3.984-3.983-10.44-3.983-14.425,0c-3.983,3.983-3.983,10.441,0,14.425l60.369,60.368    c1.992,1.992,4.602,2.987,7.212,2.987s5.22-0.995,7.212-2.987C117.467,109.503,117.467,103.045,113.484,99.061z" fill="#FFFFFF"/>
	</g>
</g>
<g>
	<g>
		<path d="M87.596,170.546H10.199C4.567,170.546,0,175.113,0,180.746s4.567,10.199,10.199,10.199h77.397    c5.632,0,10.199-4.566,10.199-10.199C97.795,175.113,93.228,170.546,87.596,170.546z" fill="#FFFFFF"/>
	</g>
</g>
<g>
	<g>
		<path d="M55.147,306.341c-3.984-3.981-10.44-3.981-14.424,0.002l-1.827,1.828c-3.982,3.984-3.981,10.442,0.002,14.425    c1.992,1.991,4.602,2.986,7.211,2.986c2.611,0,5.221-0.996,7.213-2.988l1.827-1.828C59.131,316.782,59.13,310.324,55.147,306.341z    " fill="#FFFFFF"/>
	</g>
</g>
<g>
	<g>
		<path d="M113.734,247.848c-3.957-4.009-10.415-4.05-14.423-0.094l-34.062,33.625c-4.009,3.957-4.05,10.414-0.093,14.424    c1.995,2.021,4.625,3.034,7.258,3.034c2.589,0,5.178-0.979,7.165-2.94l34.062-33.625    C117.651,258.315,117.692,251.858,113.734,247.848z" fill="#FFFFFF"/>
	</g>
</g>
<g>
	<g>
		<path d="M180.745,263.696c-5.632,0-10.199,4.566-10.199,10.199v77.397c0,5.633,4.567,10.199,10.199,10.199    s10.199-4.566,10.199-10.199v-77.397C190.944,268.262,186.377,263.696,180.745,263.696z" fill="#FFFFFF"/>
	</g>
</g>
<g>
</g>
<g>
</g>
<g>
</g>
<g>
</g>
<g>
</g>
<g>
</g>
<g>
</g>
<g>
</g>
<g>
</g>
<g>
</g>
<g>
</g>
<g>
</g>
<g>
</g>
<g>
</g>
<g>
</g>
</svg>
