<?xml version="1.0" encoding="iso-8859-1"?>
<!-- Generator: Adobe Illustrator 19.0.0, SVG Export Plug-In . SVG Version: 6.00 Build 0)  -->
<svg xmlns="http://www.w3.org/2000/svg" xmlns:xlink="http://www.w3.org/1999/xlink" version="1.1" id="Capa_1" x="0px" y="0px" viewBox="0 0 512 512" style="enable-background:new 0 0 512 512;" xml:space="preserve" width="512px" height="512px">
<g>
	<g>
		<path d="M373.581,59.294h-171.4c-4.846,0-8.775,3.929-8.775,8.775s3.929,8.775,8.775,8.775h171.4c4.847,0,8.775-3.929,8.775-8.775    S378.428,59.294,373.581,59.294z" fill="#FFFFFF"/>
	</g>
</g>
<g>
	<g>
		<path d="M511.149,191.98L450.463,64.302c-1.453-3.059-4.538-5.009-7.924-5.009H402.83c-4.847,0-8.775,3.929-8.775,8.775    s3.928,8.775,8.775,8.775h34.163l52.344,110.129h-23.329H45.991h-23.33L75.005,76.843h13.69v48.706    c0,4.846,3.929,8.775,8.775,8.775h79.558c4.846,0,8.775-3.929,8.775-8.775V22.591c0-4.846-3.929-8.775-8.775-8.775H97.47    c-4.846,0-8.775,3.929-8.775,8.775v36.702H69.461c-3.387,0-6.471,1.949-7.925,5.009L0.849,191.98    c-1.292,2.719-1.1,5.909,0.508,8.454c1.609,2.545,4.408,4.088,7.418,4.088h28.442v284.886c0,4.846,3.929,8.775,8.775,8.775    h420.017c4.847,0,8.775-3.929,8.775-8.775V204.522h28.442c3.009,0,5.81-1.543,7.418-4.088    C512.251,197.889,512.442,194.699,511.149,191.98z M106.244,31.367h62.008v85.407h-62.008V31.367z M457.234,480.634h-32.759    V336.143c0-4.846-3.928-8.775-8.775-8.775s-8.775,3.929-8.775,8.775v144.491h-89.219V267.7h89.219v39.194    c0,4.846,3.928,8.775,8.775,8.775s8.775-3.929,8.775-8.775v-47.969c0-4.846-3.928-8.775-8.775-8.775H308.931    c-4.847,0-8.775,3.929-8.775,8.775v221.708H54.766V204.522h402.468V480.634z" fill="#FFFFFF"/>
	</g>
</g>
<g>
	<g>
		<path d="M386.451,279.4h-48.27c-4.847,0-8.775,3.929-8.775,8.775v171.985c0,4.846,3.928,8.775,8.775,8.775h48.27    c4.847,0,8.775-3.929,8.775-8.775V288.174C395.226,283.328,391.298,279.4,386.451,279.4z M377.676,451.384h-30.721v-24.569h30.721    V451.384z M377.676,409.266h-30.721v-26.324h30.721V409.266z M377.676,365.392h-30.721v-26.324h30.721V365.392z M377.676,321.518    h-30.721v-24.569h30.721V321.518z" fill="#FFFFFF"/>
	</g>
</g>
<g>
	<g>
		<path d="M253.66,370.657h-4.68V258.925c0-4.846-3.929-8.775-8.775-8.775H102.149c-4.846,0-8.775,3.929-8.775,8.775v111.732h-4.68    c-4.846,0-8.775,3.929-8.775,8.775v29.249c0,4.846,3.929,8.775,8.775,8.775h14.625c4.846,0,8.775-3.929,8.775-8.775    c0-4.846-3.929-8.775-8.775-8.775h-5.85v-11.7h4.68h142.736v11.7H126.719c-4.846,0-8.775,3.929-8.775,8.775    c0,4.846,3.929,8.775,8.775,8.775H253.66c4.846,0,8.775-3.929,8.775-8.775v-29.249    C262.435,374.586,258.507,370.657,253.66,370.657z M162.403,370.657h-51.478v-42.704h51.478V370.657z M162.403,310.404h-51.478    V267.7h51.478V310.404z M231.43,370.657h-51.478v-42.704h51.478V370.657z M231.43,310.404h-51.478V267.7h51.478V310.404z" fill="#FFFFFF"/>
	</g>
</g>
<g>
</g>
<g>
</g>
<g>
</g>
<g>
</g>
<g>
</g>
<g>
</g>
<g>
</g>
<g>
</g>
<g>
</g>
<g>
</g>
<g>
</g>
<g>
</g>
<g>
</g>
<g>
</g>
<g>
</g>
</svg>
