<?xml version="1.0" encoding="iso-8859-1"?>
<!-- Generator: Adobe Illustrator 19.0.0, SVG Export Plug-In . SVG Version: 6.00 Build 0)  -->
<svg xmlns="http://www.w3.org/2000/svg" xmlns:xlink="http://www.w3.org/1999/xlink" version="1.1" id="Capa_1" x="0px" y="0px" viewBox="0 0 508 508" style="enable-background:new 0 0 508 508;" xml:space="preserve" width="512px" height="512px">
<g>
	<g>
		<path d="M439.099,251.4l-9.4-123.7c-2.2-28.6-25.6-50.9-53.3-50.9h-244.6c-27.7,0-51.1,22.4-53.3,50.9l-9.4,123.7    c-29.8,2.4-48.8,26.4-48.8,51.7V437c0,8,6.5,14.5,14.5,14.5h9.4v42c0,8,6.5,14.5,14.5,14.5h70.6c8,0,14.5-6.5,14.5-14.5v-42h220.4    v42c0,8,6.5,14.5,14.5,14.5h70.6c8,0,14.5-6.5,14.5-14.5v-42h9.4c8,0,14.5-6.5,14.5-14.5V303.1    C487.899,282.5,473.999,255.4,439.099,251.4z M107.499,130c1-13.5,11.7-24.1,24.4-24.1h244.5c12.6,0,23.3,10.6,24.4,24.1    l8.9,116.9c-103.4-14.9-207.7-14.9-311,0L107.499,130z M114.899,479h-41.6v-27.5h41.6V479z M434.899,479h-41.6v-27.5h41.6V479z     M458.899,422.5h-0.1h-409.4V303.1c0-10.9,7.8-20.1,18.6-22.1c123.5-21.9,248.7-21.9,372.3,0c10.8,1.9,18.6,11.2,18.6,22.1V422.5z    " fill="#FFFFFF"/>
	</g>
</g>
<g>
	<g>
		<path d="M129.099,301.5c-27.5,0-49.8,22.3-49.8,49.8s22.4,49.8,49.8,49.8s49.8-22.3,49.8-49.8    C178.899,323.9,156.599,301.5,129.099,301.5z M129.099,372.2c-11.5,0-20.8-9.3-20.8-20.8s9.3-20.8,20.8-20.8s20.8,9.3,20.8,20.8    C149.899,362.8,140.599,372.2,129.099,372.2z" fill="#FFFFFF"/>
	</g>
</g>
<g>
	<g>
		<path d="M379.099,301.5c-27.5,0-49.8,22.3-49.8,49.8s22.4,49.8,49.8,49.8c27.4,0,49.8-22.3,49.8-49.8    C428.899,323.9,406.599,301.5,379.099,301.5z M379.099,372.2c-11.5,0-20.8-9.3-20.8-20.8s9.3-20.8,20.8-20.8s20.8,9.3,20.8,20.8    C399.899,362.8,390.499,372.2,379.099,372.2z" fill="#FFFFFF"/>
	</g>
</g>
<g>
	<g>
		<polygon points="160.399,0 160.399,11.4 177.199,11.4 177.199,59.2 190.399,59.2 190.399,11.4 207.199,11.4 207.199,0   " fill="#FFFFFF"/>
	</g>
</g>
<g>
	<g>
		<path d="M243.199,0h-12.8l-25.6,59.2h14.1l5.5-12.8h24.8l5.5,12.8h14.1L243.199,0z M229.499,34.8l7.4-17.2l7.4,17.2H229.499z" fill="#FFFFFF"/>
	</g>
</g>
<g>
	<g>
		<polygon points="306.399,28.6 324.899,0 308.999,0 297.699,17.5 286.399,0 270.599,0 289.099,28.9 269.199,59.2 285.199,59.2     297.699,39.7 310.299,59.2 326.399,59.2   " fill="#FFFFFF"/>
	</g>
</g>
<g>
	<g>
		<rect x="334.599" width="13.2" height="59.2" fill="#FFFFFF"/>
	</g>
</g>
<g>
	<g>
		<path d="M289.999,365.8h-71.7c-8,0-14.5,6.5-14.5,14.5s6.5,14.5,14.5,14.5h71.7c8,0,14.5-6.5,14.5-14.5    S297.999,365.8,289.999,365.8z" fill="#FFFFFF"/>
	</g>
</g>
<g>
	<g>
		<path d="M289.999,307.9h-71.7c-8,0-14.5,6.5-14.5,14.5s6.5,14.5,14.5,14.5h71.7c8,0,14.5-6.5,14.5-14.5    S297.999,307.9,289.999,307.9z" fill="#FFFFFF"/>
	</g>
</g>
<g>
</g>
<g>
</g>
<g>
</g>
<g>
</g>
<g>
</g>
<g>
</g>
<g>
</g>
<g>
</g>
<g>
</g>
<g>
</g>
<g>
</g>
<g>
</g>
<g>
</g>
<g>
</g>
<g>
</g>
</svg>
