<?xml version="1.0" encoding="utf-8"?>
<!-- Generator: Adobe Illustrator 19.1.0, SVG Export Plug-In . SVG Version: 6.00 Build 0)  -->
<svg version="1.1" id="Capa_1" xmlns="http://www.w3.org/2000/svg" xmlns:xlink="http://www.w3.org/1999/xlink" x="0px" y="0px"
	 viewBox="-332 133.2 294.8 294.8" style="enable-background:new -332 133.2 294.8 294.8;" xml:space="preserve">
<style type="text/css">
	.st0{fill:#FFFFFF;}
</style>
<g>
	<path class="st0" d="M-43.2,133.2H-326c-3.3,0-6,2.7-6,6V422c0,3.3,2.7,6,6,6h240.4c3.3,0,6-2.7,6-6s-2.7-6-6-6H-320V145.2h270.8
		V422c0,3.3,2.7,6,6,6s6-2.7,6-6V139.2C-37.2,135.8-39.8,133.2-43.2,133.2z"/>
	<path class="st0" d="M-266.2,195.6c-12.7,0-23,10.3-23,23s10.3,23,23,23c12.7,0,23-10.3,23-23S-253.5,195.6-266.2,195.6z
		 M-266.2,229.6c-6.1,0-11-4.9-11-11s4.9-11,11-11s11,4.9,11,11S-260.1,229.6-266.2,229.6z"/>
	<path class="st0" d="M-85.2,212.6h-140c-3.3,0-6,2.7-6,6c0,3.3,2.7,6,6,6h140c3.3,0,6-2.7,6-6C-79.2,215.3-81.9,212.6-85.2,212.6z"
		/>
	<path class="st0" d="M-266.2,257.6c-3.3,0-6,2.7-6,6s2.7,6,6,6c6.1,0,11,4.9,11,11s-4.9,11-11,11s-11-4.9-11-11c0-3.3-2.7-6-6-6
		s-6,2.7-6,6c0,12.7,10.3,23,23,23c12.7,0,23-10.3,23-23S-253.5,257.6-266.2,257.6z"/>
	<path class="st0" d="M-85.2,274.6h-140c-3.3,0-6,2.7-6,6c0,3.3,2.7,6,6,6h140c3.3,0,6-2.7,6-6C-79.2,277.3-81.9,274.6-85.2,274.6z"
		/>
	<path class="st0" d="M-266.2,319.6c-12.7,0-23,10.3-23,23c0,12.7,10.3,23,23,23c12.7,0,23-10.3,23-23
		C-243.2,329.9-253.5,319.6-266.2,319.6z M-266.2,353.6c-6.1,0-11-4.9-11-11s4.9-11,11-11s11,4.9,11,11S-260.1,353.6-266.2,353.6z"
		/>
	<path class="st0" d="M-85.2,336.6h-140c-3.3,0-6,2.7-6,6c0,3.3,2.7,6,6,6h140c3.3,0,6-2.7,6-6C-79.2,339.3-81.9,336.6-85.2,336.6z"
		/>
</g>
</svg>
