<?xml version="1.0" encoding="utf-8"?>
<!-- Generator: Adobe Illustrator 19.1.0, SVG Export Plug-In . SVG Version: 6.00 Build 0)  -->
<svg version="1.1" id="Capa_1" xmlns="http://www.w3.org/2000/svg" xmlns:xlink="http://www.w3.org/1999/xlink" x="0px" y="0px"
	 viewBox="-468 269.1 22.9 22.9" style="enable-background:new -468 269.1 22.9 22.9;" xml:space="preserve">
<style type="text/css">
	.st0{fill:#FFFFFF;}
</style>
<g>
	<path class="st0" d="M-455,291.9h-12.5c-0.3,0-0.5-0.2-0.5-0.5s0.2-0.5,0.5-0.5h12.5c0.3,0,0.5,0.2,0.5,0.5S-454.7,291.9-455,291.9
		z"/>
	<path class="st0" d="M-445.6,284.7h-21.9c-0.3,0-0.5-0.2-0.5-0.5s0.2-0.5,0.5-0.5h21.9c0.3,0,0.5,0.2,0.5,0.5
		S-445.3,284.7-445.6,284.7z"/>
	<path class="st0" d="M-455,277.4h-12.5c-0.3,0-0.5-0.2-0.5-0.5c0-0.3,0.2-0.5,0.5-0.5h12.5c0.3,0,0.5,0.2,0.5,0.5
		C-454.5,277.2-454.7,277.4-455,277.4z"/>
	<path class="st0" d="M-445.6,270.2h-21.9c-0.3,0-0.5-0.2-0.5-0.5s0.2-0.5,0.5-0.5h21.9c0.3,0,0.5,0.2,0.5,0.5
		S-445.3,270.2-445.6,270.2z"/>
</g>
</svg>
