<?xml version="1.0" encoding="iso-8859-1"?>
<!-- Generator: Adobe Illustrator 17.1.0, SVG Export Plug-In . SVG Version: 6.00 Build 0)  -->
<!DOCTYPE svg PUBLIC "-//W3C//DTD SVG 1.1//EN" "http://www.w3.org/Graphics/SVG/1.1/DTD/svg11.dtd">
<svg xmlns="http://www.w3.org/2000/svg" xmlns:xlink="http://www.w3.org/1999/xlink" version="1.1" id="Capa_1" x="0px" y="0px" viewBox="0 0 203.884 203.884" style="enable-background:new 0 0 203.884 203.884;" xml:space="preserve" width="512px" height="512px">
<path d="M101.985,203.884c-1.104,0-2-0.896-2-2v-5.088l-9.454-9.454c-0.781-0.781-0.781-2.047,0-2.828l9.454-9.454V162.4  l-8.121,8.121c-0.78,0.781-2.047,0.781-2.828,0s-0.781-2.047,0-2.828l10.949-10.95v-11.686l-10.834,10.834  c-0.78,0.781-2.047,0.781-2.828,0s-0.781-2.047,0-2.828L99.985,139.4v-10.525l-14.235-8.218l-9.172,9.172v19.24c0,1.104-0.896,2-2,2  s-2-0.896-2-2v-15.24l-8.263,8.263v15.403c0,1.104-0.896,2-2,2s-2-0.896-2-2v-11.403l-8.262,8.262v12.682c0,1.104-0.896,2-2,2  s-2-0.896-2-2v-8.682l-15.348,15.348c-0.78,0.781-2.048,0.781-2.828,0c-0.781-0.781-0.781-2.047,0-2.828l15.388-15.389h-8.763  c-1.104,0-2-0.896-2-2s0.896-2,2-2h12.763l8.262-8.262H46.043c-1.104,0-2-0.896-2-2s0.896-2,2-2h15.484l8.263-8.263H54.469  c-1.104,0-2-0.896-2-2s0.896-2,2-2H73.79l8.374-8.374l-3.668-2.117c-0.619-0.357-1-1.018-1-1.732v-10.984H63.74l-13.634,13.634  c-0.78,0.781-2.047,0.781-2.828,0s-0.781-2.047,0-2.828l10.805-10.806H46.397l-10.921,10.921c-0.78,0.781-2.047,0.781-2.828,0  s-0.781-2.047,0-2.828l8.092-8.093H28.731l-9.481,9.48c-0.78,0.781-2.048,0.781-2.828,0l-9.481-9.48H2.233c-1.104,0-2-0.896-2-2  s0.896-2,2-2h4.708l9.481-9.48c0.78-0.781,2.048-0.781,2.828,0l9.481,9.48H40.74l-8.092-8.092c-0.781-0.781-0.781-2.047,0-2.828  c0.78-0.781,2.047-0.781,2.828,0l10.921,10.92h11.686L47.278,88.947c-0.781-0.781-0.781-2.047,0-2.828  c0.78-0.781,2.047-0.781,2.828,0L63.74,99.752h13.755V88.768c0-0.715,0.381-1.375,1-1.732l3.668-2.117l-8.795-8.795H54.088  c-1.104,0-2-0.896-2-2s0.896-2,2-2h15.281l-8.264-8.264H45.662c-1.104,0-2-0.896-2-2s0.896-2,2-2h11.444l-8.262-8.262H36.122  c-1.104,0-2-0.896-2-2s0.896-2,2-2h8.722L29.877,32.631c-0.781-0.781-0.781-2.047,0-2.828c0.78-0.781,2.048-0.781,2.828,0  L47.672,44.77v-8.722c0-1.104,0.896-2,2-2s2,0.896,2,2V48.77l8.262,8.262V45.587c0-1.104,0.896-2,2-2s2,0.896,2,2v15.444  l8.263,8.263v-15.28c0-1.104,0.896-2,2-2s2,0.896,2,2v19.28l9.553,9.553l14.235-8.218V64.104L86.323,50.44  c-0.781-0.781-0.781-2.047,0-2.828c0.78-0.781,2.047-0.781,2.828,0l10.834,10.834V46.761L89.037,35.812  c-0.781-0.781-0.781-2.047,0-2.828c0.78-0.781,2.047-0.781,2.828,0l8.121,8.12V28.444l-9.454-9.454  c-0.781-0.781-0.781-2.047,0-2.828l9.454-9.454V2c0-1.104,0.896-2,2-2s2,0.896,2,2v4.655l9.507,9.507  c0.781,0.781,0.781,2.047,0,2.828l-9.507,9.507v12.549l8.063-8.063c0.781-0.781,2.047-0.781,2.828,0s0.781,2.047,0,2.828  l-10.892,10.892v11.686l10.776-10.776c0.781-0.781,2.047-0.781,2.828,0s0.781,2.047,0,2.828l-13.604,13.605v10.583l14.034,8.103  l9.015-9.015V54.395c0-1.104,0.896-2,2-2s2,0.896,2,2v15.321l8.264-8.264V45.969c0-1.104,0.896-2,2-2s2,0.896,2,2v11.483  l8.262-8.262V36.429c0-1.104,0.896-2,2-2s2,0.896,2,2v8.762l15.388-15.388c0.781-0.781,2.047-0.781,2.828,0s0.781,2.047,0,2.828  l-15.347,15.348h8.681c1.104,0,2,0.896,2,2s-0.896,2-2,2h-12.681l-8.262,8.262h11.402c1.104,0,2,0.896,2,2s-0.896,2-2,2h-15.402  l-8.264,8.264h15.24c1.104,0,2,0.896,2,2s-0.896,2-2,2h-19.24l-8.297,8.298l3.869,2.233c0.619,0.357,1,1.018,1,1.732v10.984h12.62  l13.634-13.633c0.781-0.781,2.047-0.781,2.828,0s0.781,2.047,0,2.828l-10.805,10.805h11.686l10.92-10.92  c0.781-0.781,2.047-0.781,2.828,0s0.781,2.047,0,2.828l-8.092,8.092h13.198l9.48-9.48c0.781-0.781,2.047-0.781,2.828,0l9.48,9.48  h4.568c1.104,0,2,0.896,2,2s-0.896,2-2,2h-4.568l-9.48,9.48c-0.781,0.781-2.047,0.781-2.828,0l-9.48-9.48h-13.198l8.092,8.093  c0.781,0.781,0.781,2.047,0,2.828s-2.047,0.781-2.828,0l-10.92-10.921h-11.687l10.806,10.806c0.781,0.781,0.781,2.047,0,2.828  s-2.047,0.781-2.828,0l-13.634-13.634h-12.62v10.984c0,0.715-0.381,1.375-1,1.732l-3.869,2.233l7.875,7.876h19.281  c1.104,0,2,0.896,2,2s-0.896,2-2,2h-15.281l8.264,8.264h15.443c1.104,0,2,0.896,2,2s-0.896,2-2,2h-11.443l8.262,8.262h12.722  c1.104,0,2,0.896,2,2s-0.896,2-2,2h-8.722l15.769,15.77c0.781,0.781,0.781,2.047,0,2.828s-2.047,0.781-2.828,0l-15.77-15.77v8.722  c0,1.104-0.896,2-2,2s-2-0.896-2-2v-12.722l-8.262-8.262v11.444c0,1.104-0.896,2-2,2s-2-0.896-2-2V141.67l-8.263-8.263v15.28  c0,1.104-0.896,2-2,2s-2-0.896-2-2v-19.281l-8.634-8.634l-14.034,8.103v10.583l13.604,13.605c0.781,0.781,0.781,2.047,0,2.828  s-2.047,0.781-2.828,0l-10.776-10.776v11.686l10.892,10.893c0.781,0.781,0.781,2.047,0,2.828s-2.047,0.781-2.828,0l-8.063-8.063  v12.549l9.507,9.507c0.781,0.781,0.781,2.047,0,2.828l-9.507,9.507v5.035C103.985,202.988,103.09,203.884,101.985,203.884z   M103.985,180.663v10.529l5.265-5.265L103.985,180.663z M94.774,185.928l5.211,5.212v-10.424L94.774,185.928z M81.496,113.582  l20.49,11.829l20.49-11.829v-11.245c-0.057-0.185-0.087-0.382-0.087-0.585s0.03-0.4,0.087-0.585V89.922L102.102,78.16  c-0.077,0.004-0.155,0.004-0.232,0L81.496,89.922V113.582z M12.599,103.752l5.238,5.238l5.238-5.238H12.599z M180.949,103.752  l5.238,5.238l5.238-5.238H180.949z M180.949,99.752h10.477l-5.238-5.238L180.949,99.752z M12.599,99.752h10.476l-5.238-5.238  L12.599,99.752z M103.985,12.312v10.529l5.265-5.265L103.985,12.312z M94.774,17.576l5.211,5.212V12.364L94.774,17.576z   M101.957,117.354c-0.345,0-0.69-0.089-1-0.268l-11.779-6.801c-0.619-0.357-1-1.018-1-1.732V94.952c0-0.715,0.381-1.375,1-1.732  l11.779-6.801c0.619-0.357,1.38-0.357,2,0l11.778,6.801c0.619,0.357,1,1.018,1,1.732v13.601c0,0.715-0.381,1.375-1,1.732  l-11.778,6.801C102.647,117.265,102.302,117.354,101.957,117.354z M92.178,107.398l9.779,5.646l9.779-5.646V96.106l-9.779-5.646  l-9.779,5.646V107.398z" fill="#FFFFFF"/>
<g>
</g>
<g>
</g>
<g>
</g>
<g>
</g>
<g>
</g>
<g>
</g>
<g>
</g>
<g>
</g>
<g>
</g>
<g>
</g>
<g>
</g>
<g>
</g>
<g>
</g>
<g>
</g>
<g>
</g>
</svg>
