<?xml version="1.0" encoding="utf-8"?>
<!-- Generator: Adobe Illustrator 19.1.0, SVG Export Plug-In . SVG Version: 6.00 Build 0)  -->
<svg version="1.1" id="Layer_1" xmlns="http://www.w3.org/2000/svg" xmlns:xlink="http://www.w3.org/1999/xlink" x="0px" y="0px"
	 viewBox="-223 25 512 512" style="enable-background:new -223 25 512 512;" xml:space="preserve">
<style type="text/css">
	.st0{fill:#FFFFFF;}
</style>
<g>
	<g>
		<path class="st0" d="M288.5,415.1c-2-6.8-9.1-10.6-15.8-8.8l-83.9,24l-71.9-47.9c-2.1-1.4-4.6-2.1-7.1-2.1h-294.4
			c-7.1,0-12.8,5.7-12.8,12.8c0,7.1,5.7,12.8,12.8,12.8h290.5l73.6,49c2.1,1.4,4.6,2.1,7.1,2.1c1.2,0,2.4-0.2,3.5-0.5l89.6-25.6
			C286.5,429,290.4,421.9,288.5,415.1z"/>
	</g>
</g>
<g>
	<g>
		<path class="st0" d="M199.4,277.8c-35.3,0-64,28.7-64,64c0,35.3,28.7,64,64,64c35.3,0,64-28.7,64-64
			C263.4,306.5,234.7,277.8,199.4,277.8z M199.4,380.2c-21.2,0-38.4-17.2-38.4-38.4s17.2-38.4,38.4-38.4s38.4,17.2,38.4,38.4
			C237.8,363,220.6,380.2,199.4,380.2z"/>
	</g>
</g>
<g>
	<g>
		<path class="st0" d="M-5.4,105c-35.3,0-64,28.7-64,64s28.7,64,64,64s64-28.7,64-64C58.6,133.7,29.9,105-5.4,105z M-5.4,207.4
			c-21.2,0-38.4-17.2-38.4-38.4s17.2-38.4,38.4-38.4c21.2,0,38.4,17.2,38.4,38.4S15.8,207.4-5.4,207.4z"/>
	</g>
</g>
<g>
	<g>
		<path class="st0" d="M65.2,305.2l-128-76.8c-3.1-1.8-6.8-2.3-10.2-1.3c-3.4,1-6.3,3.4-7.9,6.6l-51.2,102.4
			c-3.2,6.3-0.6,14,5.7,17.2c1.8,0.9,3.8,1.3,5.7,1.3c4.7,0,9.2-2.6,11.5-7.1l45-90L52,327.2c6.1,3.6,13.9,1.7,17.6-4.4
			S71.2,308.9,65.2,305.2z"/>
	</g>
</g>
<g>
	<g>
		<path class="st0" d="M109.8,431.4h-320c-7.1,0-12.8,5.7-12.8,12.8c0,7.1,5.7,12.8,12.8,12.8h320c7.1,0,12.8-5.7,12.8-12.8
			C122.6,437.1,116.9,431.4,109.8,431.4z"/>
	</g>
</g>
</svg>
