<?xml version="1.0" encoding="utf-8"?>
<!-- Generator: Adobe Illustrator 19.1.0, SVG Export Plug-In . SVG Version: 6.00 Build 0)  -->
<svg version="1.1" id="Layer_1" xmlns="http://www.w3.org/2000/svg" xmlns:xlink="http://www.w3.org/1999/xlink" x="0px" y="0px"
	 viewBox="-223 25 512 512" style="enable-background:new -223 25 512 512;" xml:space="preserve">
<style type="text/css">
	.st0{fill:#FFFFFF;}
</style>
<g>
	<g>
		<path class="st0" d="M-5,226.6h-64.5c-5.5,0-10,4.5-10,10s4.5,10,10,10H-16c-4.7,25.3-26.9,44.4-53.5,44.4
			c-30,0-54.5-24.4-54.5-54.5s24.4-54.5,54.5-54.5c14.6,0,28.2,5.7,38.5,16c3.9,3.9,10.3,3.9,14.2,0c3.9-3.9,3.9-10.3,0-14.2
			c-14.1-14.1-32.8-21.8-52.7-21.8c-41.1,0-74.5,33.4-74.5,74.5s33.4,74.5,74.5,74.5S5,277.7,5,236.6C5,231.1,0.5,226.6-5,226.6z"/>
	</g>
</g>
<g>
	<g>
		<path class="st0" d="M247.3,117.2H46.7L19.8,35.9c-1.4-4.1-5.2-6.9-9.5-6.9h-191.6c-23,0-41.7,18.7-41.7,41.7v332.4
			c0,23,18.7,41.7,41.7,41.7H21.8l27.1,81.4c1.4,4.1,5.2,6.9,9.5,6.9h188.9c23,0,41.7-18.7,41.7-41.7V158.9
			C289,135.9,270.3,117.2,247.3,117.2z M-181.3,424.7c-11.9,0-21.6-9.7-21.6-21.6V70.7c0-11.9,9.7-21.6,21.6-21.6H3l70.7,213.5
			c0,0,0,0,0,0l53.7,162.1H-181.3z M114.4,308.3c0.8,1.1,10.8,14.9,26.4,34.1c-4.4,5.8-9,11.5-13.9,17l-29.7-89.7h87.4
			c-6.2,13-16.9,33.8-31.7,55.7c-13.6-16.9-22.1-28.6-22.2-28.9c-3.3-4.5-9.5-5.5-14-2.2C112.2,297.5,111.2,303.8,114.4,308.3z
			 M42.9,444.8h75.2l-55.5,59.1L42.9,444.8z M268.9,491.3c0,11.9-9.7,21.6-21.6,21.6H81.6l67-71.3l0,0c0.3-0.3,0.6-0.6,0.8-1
			c1.9-2.6,2.4-6,1.4-9l-16.7-50.4c7.1-7.4,13.7-15.1,19.8-23c13.3,15.8,29,33.4,45.8,50.2c2,2,4.5,2.9,7.1,2.9s5.1-1,7.1-2.9
			c3.9-3.9,3.9-10.3,0-14.2c-17.5-17.5-34-36.2-47.7-52.6c21.3-30.5,35-59.5,40.5-72h21.5c5.5,0,10-4.5,10-10c0-5.5-4.5-10-10-10
			H200c0,0,0,0-0.1,0H162v-18c0-5.5-4.5-10-10-10s-10,4.5-10,10v18H90.5L53.4,137.3h194c11.9,0,21.6,9.7,21.6,21.6L268.9,491.3
			L268.9,491.3z"/>
	</g>
</g>
</svg>
