<?xml version="1.0" encoding="utf-8"?>
<!-- Generator: Adobe Illustrator 19.1.0, SVG Export Plug-In . SVG Version: 6.00 Build 0)  -->
<svg version="1.1" id="Layer_1" xmlns="http://www.w3.org/2000/svg" xmlns:xlink="http://www.w3.org/1999/xlink" x="0px" y="0px"
	 viewBox="-253 54.2 452.8 452.8" style="enable-background:new -253 54.2 452.8 452.8;" xml:space="preserve">
<style type="text/css">
	.st0{fill:#FFFFFF;}
</style>
<g>
	<path class="st0" d="M196.5,244.6L196.5,244.6l-57.8-38.3V78.1c0-4.1-3.4-7.5-7.5-7.5h-315.5c-4.1,0-7.5,3.4-7.5,7.5v128.1
		l-57.8,38.3l0,0c-2,1.3-3.4,3.6-3.4,6.2v232.3c0,4.1,3.4,7.5,7.5,7.5h437.8c4.1,0,7.5-3.4,7.5-7.5V250.8
		C199.8,248.2,198.5,245.9,196.5,244.6L196.5,244.6z M-191.8,270.8l-23.5-12.5h23.5V270.8z M-238,263.3l172.5,91.5L-238,469.1V263.3
		z M-26.6,346.9l194,128.6h-388.1L-26.6,346.9L-26.6,346.9z M12.4,354.8l172.5-91.5v205.8L12.4,354.8L12.4,354.8z M138.7,258.3h23.5
		l-23.5,12.5V258.3z M167.5,243.3h-28.8v-19.1L167.5,243.3z M123.7,85.6v193.2L-1.9,345.3l-20.6-13.6c-2.5-1.7-5.8-1.7-8.3,0
		l-20.6,13.6l-125.5-66.6V85.6L123.7,85.6L123.7,85.6z M-191.8,243.3h-28.8l28.8-19.1V243.3z"/>
	<path class="st0" d="M-26.6,267.8h59.8c4.1,0,7.5-3.4,7.5-7.5c0-4.1-3.4-7.5-7.5-7.5h-59.8c-28.8,0-52.3-23.4-52.3-52.3v-2.2
		c0-28.8,23.4-52.3,52.3-52.3s52.3,23.4,52.3,52.3v5.5c0,6.2-5.1,11.3-11.3,11.3S3,210.1,3,203.9v-10.5C3,175.5-11.5,161-29.4,161
		s-32.4,14.5-32.4,32.4c0,17.9,14.5,32.4,32.4,32.4c8.2,0,15.6-3,21.3-8.1c4.6,7.5,12.9,12.5,22.4,12.5c14.5,0,26.3-11.8,26.3-26.3
		v-5.5c0-37.1-30.2-67.3-67.3-67.3s-67.3,30.2-67.3,67.3v2.2C-93.8,237.7-63.7,267.8-26.6,267.8L-26.6,267.8z M-29.4,210.8
		c-9.6,0-17.4-7.8-17.4-17.4s7.8-17.4,17.4-17.4s17.4,7.8,17.4,17.4S-19.8,210.8-29.4,210.8z"/>
</g>
</svg>
