<?xml version="1.0" encoding="utf-8"?>
<!-- Generator: Adobe Illustrator 19.1.0, SVG Export Plug-In . SVG Version: 6.00 Build 0)  -->
<svg version="1.1" id="Capa_1" xmlns="http://www.w3.org/2000/svg" xmlns:xlink="http://www.w3.org/1999/xlink" x="0px" y="0px"
	 viewBox="-451 252.4 56.6 56.6" style="enable-background:new -451 252.4 56.6 56.6;" xml:space="preserve">
<style type="text/css">
	.st0{fill:#FFFFFF;}
</style>
<g>
	<path class="st0" d="M-420,273.8C-420,273.8-420,273.8-420,273.8L-420,273.8l-30.9,30.9l4.2,4.2l40.3-40.3l-4.2-4.2L-420,273.8z
		 M-446.7,306.2l-1.4-1.4l28.8-28.8l1.4,1.4L-446.7,306.2z M-416.4,276l-1.4-1.4l7.3-7.3l1.4,1.4L-416.4,276z"/>
	<path class="st0" d="M-410.5,261.4c0.6,0,1-0.4,1-1v-7c0-0.6-0.4-1-1-1c-0.6,0-1,0.4-1,1v7C-411.5,261-411,261.4-410.5,261.4z"/>
	<path class="st0" d="M-410.5,275.4c-0.6,0-1,0.4-1,1v7c0,0.6,0.4,1,1,1c0.6,0,1-0.4,1-1v-7C-409.5,275.8-409.9,275.4-410.5,275.4z"
		/>
	<path class="st0" d="M-395.5,267.4h-7c-0.6,0-1,0.4-1,1s0.4,1,1,1h7c0.6,0,1-0.4,1-1S-394.9,267.4-395.5,267.4z"/>
	<path class="st0" d="M-425.5,269.4h7c0.6,0,1-0.4,1-1s-0.4-1-1-1h-7c-0.6,0-1,0.4-1,1S-426,269.4-425.5,269.4z"/>
	<path class="st0" d="M-404.5,263.4c0.3,0,0.5-0.1,0.7-0.3l4.9-5c0.4-0.4,0.4-1,0-1.4c-0.4-0.4-1-0.4-1.4,0l-4.9,5
		c-0.4,0.4-0.4,1,0,1.4C-405,263.3-404.8,263.4-404.5,263.4z"/>
	<path class="st0" d="M-403.8,273.7c-0.4-0.4-1-0.4-1.4,0c-0.4,0.4-0.4,1,0,1.4l4.9,5c0.2,0.2,0.5,0.3,0.7,0.3
		c0.3,0,0.5-0.1,0.7-0.3c0.4-0.4,0.4-1,0-1.4L-403.8,273.7z"/>
	<path class="st0" d="M-417.2,263.1c0.2,0.2,0.5,0.3,0.7,0.3c0.3,0,0.5-0.1,0.7-0.3c0.4-0.4,0.4-1,0-1.4l-5-5c-0.4-0.4-1-0.4-1.4,0
		c-0.4,0.4-0.4,1,0,1.4L-417.2,263.1z"/>
</g>
</svg>
