<?xml version="1.0" encoding="utf-8"?>
<!-- Generator: Adobe Illustrator 19.1.0, SVG Export Plug-In . SVG Version: 6.00 Build 0)  -->
<svg version="1.1" id="Capa_1" xmlns="http://www.w3.org/2000/svg" xmlns:xlink="http://www.w3.org/1999/xlink" x="0px" y="0px"
	 viewBox="-248 50.6 461.4 461.4" style="enable-background:new -248 50.6 461.4 461.4;" xml:space="preserve">
<style type="text/css">
	.st0{fill:#FFFFFF;}
</style>
<g>
	<path class="st0" d="M-67.7,237.8h-14.1v-14.1c0-4.1-3.4-7.5-7.5-7.5s-7.5,3.4-7.5,7.5v14.1h-14.1c-4.1,0-7.5,3.4-7.5,7.5
		s3.4,7.5,7.5,7.5h14.1v14.1c0,4.1,3.4,7.5,7.5,7.5s7.5-3.4,7.5-7.5v-14.1h14.1c4.1,0,7.5-3.4,7.5-7.5S-63.6,237.8-67.7,237.8z"/>
	<path class="st0" d="M4.3,309.8h-43.2c-4.1,0-7.5,3.4-7.5,7.5s3.4,7.5,7.5,7.5H4.3c4.1,0,7.5-3.4,7.5-7.5S8.4,309.8,4.3,309.8z"/>
	<path class="st0" d="M4.3,237.8h-43.2c-4.1,0-7.5,3.4-7.5,7.5s3.4,7.5,7.5,7.5H4.3c4.1,0,7.5-3.4,7.5-7.5S8.4,237.8,4.3,237.8z"/>
	<path class="st0" d="M177.1,309.8h-72c-4.1,0-7.5,3.4-7.5,7.5s3.4,7.5,7.5,7.5h72c4.1,0,7.5-3.4,7.5-7.5S181.2,309.8,177.1,309.8z"
		/>
	<path class="st0" d="M177.1,237.8h-72c-4.1,0-7.5,3.4-7.5,7.5s3.4,7.5,7.5,7.5h72c4.1,0,7.5-3.4,7.5-7.5S181.2,237.8,177.1,237.8z"
		/>
	<path class="st0" d="M-139.7,309.8h-72c-4.1,0-7.5,3.4-7.5,7.5s3.4,7.5,7.5,7.5h72c4.1,0,7.5-3.4,7.5-7.5S-135.6,309.8-139.7,309.8
		z"/>
	<path class="st0" d="M-139.7,237.8h-72c-4.1,0-7.5,3.4-7.5,7.5s3.4,7.5,7.5,7.5h72c4.1,0,7.5-3.4,7.5-7.5S-135.6,237.8-139.7,237.8
		z"/>
	<path class="st0" d="M-89.3,202.4c4.1,0,7.5-3.4,7.5-7.5v-28.8c0-4.1-3.4-7.5-7.5-7.5s-7.5,3.4-7.5,7.5v28.8
		C-96.8,199-93.4,202.4-89.3,202.4z"/>
	<path class="st0" d="M54.7,202.4c4.1,0,7.5-3.4,7.5-7.5v-28.8c0-4.1-3.4-7.5-7.5-7.5s-7.5,3.4-7.5,7.5v28.8
		C47.2,199,50.6,202.4,54.7,202.4z"/>
	<path class="st0" d="M-89.3,360.2c-4.1,0-7.5,3.4-7.5,7.5v28.8c0,4.1,3.4,7.5,7.5,7.5s7.5-3.4,7.5-7.5v-28.8
		C-81.8,363.6-85.2,360.2-89.3,360.2z"/>
	<path class="st0" d="M54.7,360.2c-4.1,0-7.5,3.4-7.5,7.5v28.8c0,4.1,3.4,7.5,7.5,7.5s7.5-3.4,7.5-7.5v-28.8
		C62.2,363.6,58.8,360.2,54.7,360.2z"/>
	<path class="st0" d="M76.3,237.8H62.2v-14.1c0-4.1-3.4-7.5-7.5-7.5s-7.5,3.4-7.5,7.5v14.1H33.1c-4.1,0-7.5,3.4-7.5,7.5
		s3.4,7.5,7.5,7.5h14.1v14.1c0,4.1,3.4,7.5,7.5,7.5s7.5-3.4,7.5-7.5v-14.1h14.1c4.1,0,7.5-3.4,7.5-7.5S80.4,237.8,76.3,237.8z"/>
	<path class="st0" d="M76.3,309.8H62.2v-14.1c0-4.1-3.4-7.5-7.5-7.5s-7.5,3.4-7.5,7.5v14.1H33.1c-4.1,0-7.5,3.4-7.5,7.5
		s3.4,7.5,7.5,7.5h14.1v14.1c0,4.1,3.4,7.5,7.5,7.5s7.5-3.4,7.5-7.5v-14.1h14.1c4.1,0,7.5-3.4,7.5-7.5S80.4,309.8,76.3,309.8z"/>
	<path class="st0" d="M-67.7,309.8h-14.1v-14.1c0-4.1-3.4-7.5-7.5-7.5s-7.5,3.4-7.5,7.5v14.1h-14.1c-4.1,0-7.5,3.4-7.5,7.5
		s3.4,7.5,7.5,7.5h14.1v14.1c0,4.1,3.4,7.5,7.5,7.5s7.5-3.4,7.5-7.5v-14.1h14.1c4.1,0,7.5-3.4,7.5-7.5S-63.6,309.8-67.7,309.8z"/>
	<path class="st0" d="M189.9,129.8h-414.4c-13,0-23.5,10.5-23.5,23.5v256c0,13,10.5,23.5,23.5,23.5h414.4c13,0,23.5-10.5,23.5-23.5
		v-256C213.4,140.3,202.9,129.8,189.9,129.8z M198.4,409.3c0,4.7-3.8,8.5-8.5,8.5h-414.4c-4.7,0-8.5-3.8-8.5-8.5v-256
		c0-4.7,3.8-8.5,8.5-8.5h414.4c4.7,0,8.5,3.8,8.5,8.5V409.3z"/>
	<path class="st0" d="M-211.7,209.6c4.1,0,7.5-3.4,7.5-7.5v-28.5h28.5c4.1,0,7.5-3.4,7.5-7.5s-3.4-7.5-7.5-7.5h-36
		c-4.1,0-7.5,3.4-7.5,7.5v36C-219.2,206.2-215.8,209.6-211.7,209.6z"/>
	<path class="st0" d="M177.1,353c-4.1,0-7.5,3.4-7.5,7.5V389h-28.5c-4.1,0-7.5,3.4-7.5,7.5s3.4,7.5,7.5,7.5h36
		c4.1,0,7.5-3.4,7.5-7.5v-36C184.6,356.4,181.2,353,177.1,353z"/>
	<path class="st0" d="M177.1,158.6h-36c-4.1,0-7.5,3.4-7.5,7.5s3.4,7.5,7.5,7.5h28.5v28.5c0,4.1,3.4,7.5,7.5,7.5s7.5-3.4,7.5-7.5
		v-36C184.6,162,181.2,158.6,177.1,158.6z"/>
	<path class="st0" d="M-175.7,389h-28.5v-28.5c0-4.1-3.4-7.5-7.5-7.5s-7.5,3.4-7.5,7.5v36c0,4.1,3.4,7.5,7.5,7.5h36
		c4.1,0,7.5-3.4,7.5-7.5S-171.6,389-175.7,389z"/>
</g>
</svg>
