<?xml version="1.0" encoding="utf-8"?>
<!-- Generator: Adobe Illustrator 19.1.0, SVG Export Plug-In . SVG Version: 6.00 Build 0)  -->
<svg version="1.1" id="Capa_1" xmlns="http://www.w3.org/2000/svg" xmlns:xlink="http://www.w3.org/1999/xlink" x="0px" y="0px"
	 viewBox="-441 243.9 75.1 75.1" style="enable-background:new -441 243.9 75.1 75.1;" xml:space="preserve">
<style type="text/css">
	.st0{fill:#FFFFFF;}
</style>
<path class="st0" d="M-375.9,243.9h-55c-1.1,0-1.9,0.9-1.9,1.9v71.2c0,1.1,0.9,1.9,1.9,1.9h55c1.1,0,1.9-0.9,1.9-1.9v-71.2
	C-374,244.8-374.9,243.9-375.9,243.9z M-377.9,315.1H-429v-67.3h51.2V315.1z M-413.6,269.5h-0.1c-0.9,0-1.7,0.7-1.7,1.7
	s0.7,1.7,1.7,1.7h1.8c0.9,0,1.7-0.8,1.7-1.7v-5.4h3.1l4.3,5.6l-3.1,3.8h-0.4c-0.9,0-1.7,0.7-1.7,1.7s0.7,1.7,1.7,1.7h1.2
	c0.5,0,1-0.2,1.3-0.6l3.1-3.8l2.9,3.8c0.3,0.4,0.8,0.6,1.3,0.6h1c0.9,0,1.7-0.7,1.7-1.7s-0.7-1.7-1.7-1.7h-0.2l-2.9-3.8l2.5-3h0.2
	c0.9,0,1.7-0.7,1.7-1.7s-0.7-1.7-1.7-1.7h-1c-0.5,0-1,0.2-1.3,0.6l-2.5,3l-2.8-3.6c1.7-1,2.9-2.8,2.9-4.9c0-3.1-2.5-5.7-5.7-5.7
	h-5.6h-1.8c-0.9,0-1.7,0.7-1.7,1.7c0,0.9,0.7,1.7,1.7,1.7h0.1L-413.6,269.5L-413.6,269.5z M-404,260.1c0,1.3-1.1,2.4-2.4,2.4h-3.9
	v-4.7h3.9C-405,257.7-404,258.8-404,260.1z M-423.8,287.2c0-0.9,0.7-1.7,1.7-1.7h38.5c0.9,0,1.7,0.7,1.7,1.7s-0.7,1.7-1.7,1.7h-38.5
	C-423.1,288.8-423.8,288.1-423.8,287.2z M-423.8,296.5c0-0.9,0.7-1.7,1.7-1.7h38.5c0.9,0,1.7,0.7,1.7,1.7c0,0.9-0.7,1.7-1.7,1.7
	h-38.5C-423.1,298.2-423.8,297.4-423.8,296.5z M-423.8,305.8c0-0.9,0.7-1.7,1.7-1.7h38.5c0.9,0,1.7,0.7,1.7,1.7s-0.7,1.7-1.7,1.7
	h-38.5C-423.1,307.5-423.8,306.8-423.8,305.8z"/>
</svg>
