<?xml version="1.0" encoding="utf-8"?>
<!-- Generator: Adobe Illustrator 19.1.0, SVG Export Plug-In . SVG Version: 6.00 Build 0)  -->
<svg version="1.1" id="Capa_1" xmlns="http://www.w3.org/2000/svg" xmlns:xlink="http://www.w3.org/1999/xlink" x="0px" y="0px"
	 viewBox="-223 25 512 512" style="enable-background:new -223 25 512 512;" xml:space="preserve">
<style type="text/css">
	.st0{fill:#FFFFFF;}
</style>
<g>
	<g>
		<path class="st0" d="M282.1,25.7c-4.2-1.6-8.9-0.3-11.8,3.1C190.9,121.3,75.5,174.3-46.4,174.3H-63c-17.6,0-32,14.4-32,32v149.3
			c0,17.6,14.4,32,32,32h16.6c121.9,0,237.3,53.1,316.6,145.6c2.1,2.4,5,3.7,8.1,3.7c1.3,0,2.5-0.2,3.7-0.7c4.2-1.6,7-5.5,7-10V35.7
			C289,31.2,286.2,27.2,282.1,25.7z M267.7,498.9c-82.3-84.5-195.2-132.5-314-132.5H-63c-5.9,0-10.7-4.8-10.7-10.7V206.3
			c0-5.9,4.8-10.7,10.7-10.7h16.6c118.8,0,231.8-48,314-132.5L267.7,498.9L267.7,498.9z"/>
	</g>
</g>
<g>
	<g>
		<path class="st0" d="M-84.3,195.7h-85.3c-29.4,0-53.3,23.9-53.3,53.3v64c0,29.4,23.9,53.3,53.3,53.3h85.3
			c5.9,0,10.7-4.8,10.7-10.7V206.3C-73.7,200.4-78.4,195.7-84.3,195.7z M-95,345h-74.7c-17.6,0-32-14.4-32-32v-64
			c0-17.6,14.4-32,32-32H-95V345z"/>
	</g>
</g>
<g>
	<g>
		<path class="st0" d="M5.9,486.9c0,0-5.7-6.3-7.4-8.5c-4.6-5.8-9-12.4-13-19.5c-11.6-20.7-14.7-45.2-8.7-69.1l2.6-10.2
			c1.4-5.7-2-11.5-7.8-12.9c-5.6-1.4-11.5,2-12.9,7.8l-2.6,10.2c-7.3,29.2-3.4,59.2,10.8,84.7c4.6,8.1,9.6,15.7,15,22.4
			c1.7,2.2,6.8,7.9,7.1,8c2.7,4.7,0.9,8.9,0,10.5c-0.9,1.6-3.7,5.4-9.3,5.4h-29.8c-15.1,0-27.9-10.3-31.3-25.4L-116.7,353
			c-1.5-5.7-7.3-9.2-13-7.7c-5.7,1.5-9.1,7.3-7.7,13l35.2,136.9c5.4,24.6,26.9,41.8,52.1,41.8h29.8c11.7,0,22.1-6.1,27.8-16.2
			C13.3,510.6,13.1,498.5,5.9,486.9z"/>
	</g>
</g>
<g>
	<g>
		<path class="st0" d="M-169.7,259.7c-5.9,0-10.7,4.8-10.7,10.7v21.3c0,5.9,4.8,10.7,10.7,10.7s10.7-4.8,10.7-10.7v-21.3
			C-159,264.4-163.8,259.7-169.7,259.7z"/>
	</g>
</g>
<g>
	<g>
		<path class="st0" d="M-127,259.7c-5.9,0-10.7,4.8-10.7,10.7v21.3c0,5.9,4.8,10.7,10.7,10.7s10.7-4.8,10.7-10.7v-21.3
			C-116.3,264.4-121.1,259.7-127,259.7z"/>
	</g>
</g>
</svg>
