<?xml version="1.0" encoding="utf-8"?>
<!-- Generator: Adobe Illustrator 19.1.0, SVG Export Plug-In . SVG Version: 6.00 Build 0)  -->
<svg version="1.1" id="Capa_1" xmlns="http://www.w3.org/2000/svg" xmlns:xlink="http://www.w3.org/1999/xlink" x="0px" y="0px"
	 viewBox="-239 41 480 480" style="enable-background:new -239 41 480 480;" xml:space="preserve">
<style type="text/css">
	.st0{fill:#FFFFFF;}
</style>
<g>
	<g>
		<path class="st0" d="M65,345.8V273c0-13.2-10.8-24-24-24h-224c-13.2,0-24,10.8-24,24v72.8c-18.2,3.7-32,19.9-32,39.2v48v80
			c0,4.4,3.6,8,8,8h32c4.4,0,8-3.6,8-8v-24H49v24c0,4.4,3.6,8,8,8h32c4.4,0,8-3.6,8-8v-80v-48C97,365.7,83.2,349.5,65,345.8z
			 M-191,273c0-4.4,3.6-8,8-8H41c4.4,0,8,3.6,8,8v72H33v-32c0-13.2-10.8-24-24-24h-48c-13.2,0-24,10.8-24,24v32h-16v-32
			c0-13.2-10.8-24-24-24h-48c-13.2,0-24,10.8-24,24v32h-16V273z M17,313v32h-64v-32c0-4.4,3.6-8,8-8H9C13.4,305,17,308.6,17,313z
			 M-95,313v32h-64v-32c0-4.4,3.6-8,8-8h48C-98.6,305-95,308.6-95,313z M81,505H65v-24c0-4.4-3.6-8-8-8h-256c-4.4,0-8,3.6-8,8v24
			h-16v-64H81V505z M81,425h-304v-40c0-13.2,10.8-24,24-24h32h80h32h80h32c13.2,0,24,10.8,24,24V425z"/>
	</g>
</g>
<g>
	<g>
		<path class="st0" d="M233,345H121c-4.4,0-8,3.6-8,8v64v56h16v-48h96v48h16v-56v-64C241,348.6,237.4,345,233,345z M225,409h-96v-48
			h96V409z"/>
	</g>
</g>
<g>
	<g>
		<rect x="161" y="377" class="st0" width="32" height="16"/>
	</g>
</g>
<g>
	<g>
		<path class="st0" d="M216.6,278.5l-16-48c-1.1-3.3-4.1-5.5-7.6-5.5h-32c-3.4,0-6.5,2.2-7.6,5.5l-16,48c-0.8,2.4-0.4,5.1,1.1,7.2
			s3.9,3.3,6.5,3.3h24v24h-16v16h48v-16h-16v-24h24c2.6,0,5-1.2,6.5-3.3C217,283.6,217.4,280.9,216.6,278.5z M156.1,273l10.7-32
			h20.5l10.7,32H156.1z"/>
	</g>
</g>
<g>
	<g>
		<path class="st0" d="M236.3,145.7l-232-104c-2.1-0.9-4.5-0.9-6.5,0l-232,104c-2.9,1.3-4.7,4.2-4.7,7.3v96h16v-90.8L1,57.8
			l224,100.4V249h16v-96C241,149.8,239.2,147,236.3,145.7z"/>
	</g>
</g>
<g>
	<g>
		<path class="st0" d="M56.2,151.7l-15.8,2.7c0.4,2.2,0.6,4.4,0.6,6.7c0,22.1-17.9,40-40,40s-40-17.9-40-40s17.9-40,40-40
			c4.6,0,9.1,0.8,13.3,2.3l5.3-15.1c-6-2.1-12.3-3.2-18.7-3.2c-30.9,0-56,25.1-56,56s25.1,56,56,56s56-25.1,56-56
			C57,157.9,56.7,154.7,56.2,151.7z"/>
	</g>
</g>
<g>
	<g>
		<path class="st0" d="M51.3,107.3L1,157.7l-10.3-10.3l-11.3,11.3l16,16C-3.1,176.2-1,177,1,177s4.1-0.8,5.7-2.3l56-56L51.3,107.3z"
			/>
	</g>
</g>
</svg>
