<?xml version="1.0" encoding="utf-8"?>
<!-- Generator: Adobe Illustrator 19.1.0, SVG Export Plug-In . SVG Version: 6.00 Build 0)  -->
<svg version="1.1" id="Layer_1" xmlns="http://www.w3.org/2000/svg" xmlns:xlink="http://www.w3.org/1999/xlink" x="0px" y="0px"
	 viewBox="-223 25 512 512" style="enable-background:new -223 25 512 512;" xml:space="preserve">
<style type="text/css">
	.st0{fill:#FFFFFF;}
</style>
<g>
	<g>
		<path class="st0" d="M271.2,513c0,0,0-225.8,0-301c0-3.1-3.9-7-7.7-9.9L184.8,145V81.9c0-6.2-5.2-10.4-10.4-10.4H84.7L39,38.2
			c-3.1-2.1-8.3-2.1-11.5,0l-45.7,33.3h-89.7c-6.2,0-10.4,5.2-10.4,10.4v62.4l-79.7,57.9c-4.7,2.9-7.7,6.7-7.7,9.9
			c0,75.7,0,303,0,303c0,5.9,4.7,10,9.6,10.4c0.3,0,0.5,0,0.8,0h456C267.4,525.4,271.2,520.2,271.2,513z M251.4,230.7v263.6
			L79.3,356.5L251.4,230.7L251.4,230.7z M243.7,212.4l-58.9,42.9v-86.2L243.7,212.4L243.7,212.4z M32.8,57.9l18.3,13.5H14.4
			L32.8,57.9L32.8,57.9z M164,92.3v178.2L32.8,366.1l-131.2-95.6V92.3C-98.4,92.3,164,92.3,164,92.3z M-185.8,230.7l172.1,125.8
			l-172.1,138.6V230.7z M-118.2,256.1l-60.4-44l60.4-43.9V256.1z M-167.1,505.6L3,368.7l23.5,17.2c4.5,3.4,7.9,3.4,12.5,0l23.5-17.2
			l171.1,136.9H-167.1L-167.1,505.6z"/>
		<rect x="-36.9" y="143.3" class="st0" width="140.5" height="19.8"/>
		<rect x="-36.9" y="206.8" class="st0" width="140.5" height="19.8"/>
		<rect x="-36.9" y="270.3" class="st0" width="140.5" height="19.8"/>
	</g>
</g>
</svg>
