<?xml version="1.0" encoding="utf-8"?>
<!-- Generator: Adobe Illustrator 19.1.0, SVG Export Plug-In . SVG Version: 6.00 Build 0)  -->
<svg version="1.1" id="Capa_1" xmlns="http://www.w3.org/2000/svg" xmlns:xlink="http://www.w3.org/1999/xlink" x="0px" y="0px"
	 viewBox="-223 25 512 512" style="enable-background:new -223 25 512 512;" xml:space="preserve">
<style type="text/css">
	.st0{fill:#FFFFFF;}
</style>
<g>
	<g>
		<path class="st0" d="M285.9,198.8L115.2,28.1c-4.2-4.2-10.9-4.2-15.1,0l-320,320c-4.2,4.2-4.2,10.9,0,15.1l170.7,170.7
			c2.1,2.1,4.8,3.1,7.6,3.1s5.5-1,7.5-3.1l320-320C290,209.7,290,203,285.9,198.8z M-41.7,511.2l-155.6-155.6L107.7,50.7
			l155.6,155.6L-41.7,511.2z"/>
	</g>
</g>
<g>
	<g>
		<path class="st0" d="M-54.6,499.7c-2-5.5-8.2-8.4-13.7-6.3l-52.3,19.3l-45.1-124c-2-5.5-8.1-8.4-13.7-6.4c-5.5,2-8.4,8.1-6.4,13.7
			L-137,530c1,2.7,2.9,4.8,5.5,6c1.4,0.7,2.9,1,4.5,1c1.3,0,2.5-0.2,3.7-0.7l62.4-23C-55.4,511.3-52.6,505.2-54.6,499.7z"/>
	</g>
</g>
<g>
	<g>
		<path class="st0" d="M-101,250.6c-2-5.5-8.2-8.4-13.7-6.3L-216,281.7c-5.5,2-8.3,8.1-6.3,13.7l17.1,46.9c1.6,4.3,5.7,7,10,7
			c1.2,0,2.4-0.2,3.6-0.6c5.5-2,8.4-8.1,6.4-13.7l-13.4-36.9l91.4-33.7C-101.8,262.3-99,256.2-101,250.6z"/>
	</g>
</g>
<g>
	<g>
		<path class="st0" d="M288.3,373.3l-45.5-125.1c-2-5.5-8.1-8.4-13.7-6.4c-5.5,2-8.4,8.1-6.4,13.7l41.9,115.2L4.4,466.6
			c-5.5,2-8.3,8.2-6.3,13.7c1.6,4.3,5.7,7,10,7c1.2,0,2.5-0.2,3.7-0.7L282,387C287.5,385,290.3,378.9,288.3,373.3z"/>
	</g>
</g>
<g>
	<g>
		<path class="st0" d="M224.3,352c-2-5.5-8.2-8.4-13.7-6.3l-53.1,19.6c-5.5,2-8.3,8.2-6.3,13.7c1.6,4.3,5.7,7,10,7
			c1.2,0,2.5-0.2,3.7-0.7l53.1-19.6C223.6,363.6,226.4,357.5,224.3,352z"/>
	</g>
</g>
<g>
	<g>
		<path class="st0" d="M69,245.6c-29.6-29.6-68.5-37.2-88.6-17.1c-10.2,10.2-13.6,25.5-9.5,43.1c3.7,15.8,13.2,31.9,26.6,45.4
			C16,335.4,38,345.3,56.9,345.3c11.4,0,21.7-3.6,29.2-11.2C106.1,314.1,98.6,275.2,69,245.6z M71,319c-9.8,9.7-36.2,5.1-58.4-17.2
			C2.1,291.3-5.5,278.5-8.3,266.7c-1.4-5.9-2.7-16.7,3.8-23.2c3.2-3.2,8.2-4.9,14.2-4.9c12.4,0,29.2,7,44.2,22
			C76.1,282.9,80.8,309.3,71,319z"/>
	</g>
</g>
<g>
	<g>
		<path class="st0" d="M221.9,198.8c-4.2-4.2-10.9-4.2-15.1,0l-42.7,42.7c-4.2,4.2-4.2,10.9,0,15.1c2.1,2.1,4.8,3.1,7.6,3.1
			s5.5-1,7.5-3.1l42.7-42.7C226,209.7,226,203,221.9,198.8z"/>
	</g>
</g>
<g>
	<g>
		<path class="st0" d="M-98.1,305.5c-4.2-4.2-10.9-4.2-15.1,0l-42.7,42.7c-4.2,4.2-4.2,10.9,0,15.1c2.1,2.1,4.8,3.1,7.6,3.1
			c2.7,0,5.5-1,7.5-3.1l42.7-42.7C-94,316.4-94,309.6-98.1,305.5z"/>
	</g>
</g>
</svg>
