<?xml version="1.0" encoding="utf-8"?>
<!-- Generator: Adobe Illustrator 19.1.0, SVG Export Plug-In . SVG Version: 6.00 Build 0)  -->
<svg version="1.1" id="Capa_1" xmlns="http://www.w3.org/2000/svg" xmlns:xlink="http://www.w3.org/1999/xlink" x="0px" y="0px"
	 viewBox="-241 43.7 475.3 475.3" style="enable-background:new -241 43.7 475.3 475.3;" xml:space="preserve">
<style type="text/css">
	.st0{fill:#FFFFFF;}
</style>
<g>
	<path class="st0" d="M217.2,130.7H-71c-9.5,0-17.1,7.7-17.1,17.1v75.1h-135.7c-9.5,0-17.1,7.7-17.1,17.1v174.8
		c0,9.5,7.7,17.1,17.1,17.1H64.3c9.5,0,17.1-7.7,17.1-17.1v-75.1h135.7c9.5,0,17.1-7.7,17.1-17.1V147.8
		C234.3,138.4,226.6,130.7,217.2,130.7z M64.7,414.9c0,0.2-0.1,0.3-0.3,0.3l-288.5-0.3l0.3-175.1l288.5,0.3V414.9z M217.5,322.6
		c0,0.2-0.1,0.3-0.3,0.3l-135.7-0.2v-82.7c0-9.4-7.7-17.1-17.1-17.1H-71.2l0.1-75.5l288.5,0.3L217.5,322.6L217.5,322.6z"/>
</g>
</svg>
