<?xml version="1.0" encoding="iso-8859-1"?>
<!-- Generator: Adobe Illustrator 19.0.0, SVG Export Plug-In . SVG Version: 6.00 Build 0)  -->
<svg xmlns="http://www.w3.org/2000/svg" xmlns:xlink="http://www.w3.org/1999/xlink" version="1.1" id="Capa_1" x="0px" y="0px" viewBox="0 0 512 512" style="enable-background:new 0 0 512 512;" xml:space="preserve" width="512px" height="512px">
<g>
	<g>
		<path d="M283.527,151.948c4.558,0,8.258-3.694,8.258-8.258V35.785C291.785,15.718,276.067,0,256,0H90.839    C70.772,0,55.054,15.718,55.054,35.785v440.43c0,20.067,15.718,35.785,35.785,35.785H256c20.067,0,35.785-15.718,35.785-35.785    V203.699c0-4.564-3.7-8.258-8.258-8.258c-4.558,0-8.258,3.694-8.258,8.258v272.516c0,10.807-8.462,19.269-19.269,19.269H90.839    c-10.802,0-19.269-8.462-19.269-19.269V35.785c0-10.802,8.467-19.269,19.269-19.269H256c10.807,0,19.269,8.467,19.269,19.269    V143.69C275.269,148.254,278.968,151.948,283.527,151.948z" fill="#FFFFFF"/>
	</g>
</g>
<g>
	<g>
		<path d="M223.265,198.012c-3.755-2.599-8.886-1.663-11.49,2.087c-8.721,12.596-23.062,20.117-38.356,20.117    c-25.804,0-46.796-20.992-46.796-46.796s20.992-46.796,46.796-46.796c15.294,0,29.635,7.52,38.361,20.117    c2.599,3.744,7.741,4.68,11.49,2.087s4.68-7.741,2.087-11.49c-11.809-17.05-31.226-27.23-51.938-27.23    c-34.91,0-63.312,28.402-63.312,63.312c0,34.91,28.402,63.312,63.312,63.312c20.711,0,40.129-10.179,51.932-27.23    C227.95,205.752,227.014,200.61,223.265,198.012z" fill="#FFFFFF"/>
	</g>
</g>
<g>
	<g>
		<path d="M437.677,137.634H173.419c-20.067,0-35.785,15.718-35.785,35.785c0,20.067,15.718,35.785,35.785,35.785h264.258    c10.625,0,19.269-8.643,19.269-19.269v-33.032C456.946,146.278,448.303,137.634,437.677,137.634z M440.43,189.935    c0,1.492-1.261,2.753-2.753,2.753H173.419c-10.802,0-19.269-8.467-19.269-19.269c0-10.802,8.467-19.269,19.269-19.269h264.258    c1.492,0,2.753,1.261,2.753,2.753V189.935z" fill="#FFFFFF"/>
	</g>
</g>
<g>
	<g>
		<path d="M96.674,29.949c-3.083-3.083-8.588-3.083-11.671,0c-1.542,1.542-2.422,3.634-2.422,5.836c0,2.147,0.881,4.294,2.422,5.836    s3.689,2.422,5.836,2.422s4.294-0.881,5.836-2.422c1.542-1.542,2.422-3.689,2.422-5.836    C99.097,33.583,98.216,31.491,96.674,29.949z" fill="#FFFFFF"/>
	</g>
</g>
<g>
	<g>
		<path d="M261.836,29.949c-3.083-3.083-8.588-3.083-11.671,0c-1.542,1.542-2.422,3.634-2.422,5.836s0.881,4.294,2.422,5.836    s3.689,2.422,5.836,2.422s4.294-0.881,5.836-2.422s2.422-3.689,2.422-5.836S263.377,31.491,261.836,29.949z" fill="#FFFFFF"/>
	</g>
</g>
<g>
	<g>
		<path d="M96.674,470.374c-3.083-3.083-8.588-3.083-11.671,0c-1.542,1.547-2.422,3.689-2.422,5.841    c0,2.147,0.881,4.294,2.422,5.836s3.689,2.422,5.836,2.422s4.294-0.881,5.836-2.422c1.542-1.542,2.422-3.689,2.422-5.836    C99.097,474.062,98.216,471.921,96.674,470.374z" fill="#FFFFFF"/>
	</g>
</g>
<g>
	<g>
		<path d="M261.836,470.374c-3.083-3.083-8.588-3.083-11.671,0c-1.542,1.547-2.422,3.689-2.422,5.841    c0,2.147,0.881,4.294,2.422,5.836s3.689,2.422,5.836,2.422s4.294-0.881,5.836-2.422s2.422-3.689,2.422-5.836    C264.258,474.062,263.377,471.921,261.836,470.374z" fill="#FFFFFF"/>
	</g>
</g>
<g>
	<g>
		<path d="M209.133,392.566l-7.774-59.574c11.325-14.215,10.378-34.381-2.835-47.594c-14.226-14.231-36.534-14.237-50.765,0    c-13.224,13.224-14.16,33.412-2.808,47.621l-7.256,59.612c-0.286,2.351,0.446,4.707,2.015,6.474    c1.569,1.773,3.821,2.786,6.182,2.786h55.054c2.378,0,4.636-1.024,6.205-2.808C208.72,397.296,209.441,394.928,209.133,392.566z     M184.502,331.391l7.041,53.986h-36.324l6.579-54.057c0.308-2.521-0.562-5.043-2.356-6.838c-7.812-7.812-7.812-19.599,0-27.411    c7.812-7.818,19.605-7.818,27.411,0c7.812,7.812,7.812,19.599,0,27.411C185.036,326.293,184.166,328.847,184.502,331.391z" fill="#FFFFFF"/>
	</g>
</g>
<g>
	<g>
		<path d="M90.839,55.054c-4.564,0-8.258,3.694-8.258,8.258v385.376c0,4.558,3.694,8.258,8.258,8.258c4.564,0,8.258-3.7,8.258-8.258    V63.312C99.097,58.748,95.403,55.054,90.839,55.054z" fill="#FFFFFF"/>
	</g>
</g>
<g>
	<g>
		<path d="M256,55.054c-4.564,0-8.258,3.694-8.258,8.258v55.054c0,4.564,3.694,8.258,8.258,8.258s8.258-3.694,8.258-8.258V63.312    C264.258,58.748,260.564,55.054,256,55.054z" fill="#FFFFFF"/>
	</g>
</g>
<g>
	<g>
		<path d="M256,220.215c-4.564,0-8.258,3.694-8.258,8.258v220.215c0,4.558,3.694,8.258,8.258,8.258s8.258-3.7,8.258-8.258V228.473    C264.258,223.909,260.564,220.215,256,220.215z" fill="#FFFFFF"/>
	</g>
</g>
<g>
	<g>
		<path d="M228.473,467.957H118.366c-4.564,0-8.258,3.7-8.258,8.258s3.694,8.258,8.258,8.258h110.108c4.564,0,8.258-3.7,8.258-8.258    S233.037,467.957,228.473,467.957z" fill="#FFFFFF"/>
	</g>
</g>
<g>
	<g>
		<path d="M228.473,27.527H118.366c-4.564,0-8.258,3.694-8.258,8.258c0,4.564,3.694,8.258,8.258,8.258h110.108    c4.564,0,8.258-3.694,8.258-8.258C236.731,31.221,233.037,27.527,228.473,27.527z" fill="#FFFFFF"/>
	</g>
</g>
<g>
</g>
<g>
</g>
<g>
</g>
<g>
</g>
<g>
</g>
<g>
</g>
<g>
</g>
<g>
</g>
<g>
</g>
<g>
</g>
<g>
</g>
<g>
</g>
<g>
</g>
<g>
</g>
<g>
</g>
</svg>
