<?xml version="1.0" encoding="utf-8"?>
<!-- Generator: Adobe Illustrator 19.1.0, SVG Export Plug-In . SVG Version: 6.00 Build 0)  -->
<svg version="1.1" id="Livello_1" xmlns="http://www.w3.org/2000/svg" xmlns:xlink="http://www.w3.org/1999/xlink" x="0px" y="0px"
	 viewBox="-3386 3518.6 315 50" style="enable-background:new -3386 3518.6 315 50;" xml:space="preserve">
<style type="text/css">
	.st0{fill:#FFFFFF;}
	.st1{clip-path:url(#SVGID_2_);fill:#FFFFFF;}
	.st2{clip-path:url(#SVGID_4_);fill:#FFFFFF;}
	.st3{clip-path:url(#SVGID_6_);fill:#FFFFFF;}
	.st4{clip-path:url(#SVGID_8_);fill:#FFFFFF;}
	.st5{clip-path:url(#SVGID_10_);fill:#FFFFFF;}
	.st6{clip-path:url(#SVGID_12_);fill:#009CB4;}
	.st7{clip-path:url(#SVGID_14_);fill:#009CB4;}
	.st8{clip-path:url(#SVGID_16_);fill:#009CB4;}
	.st9{clip-path:url(#SVGID_18_);fill:#009CB4;}
	.st10{clip-path:url(#SVGID_20_);fill:#009CB4;}
	.st11{clip-path:url(#SVGID_22_);fill:#009CB4;}
	.st12{clip-path:url(#SVGID_24_);fill:none;stroke:#009CB4;stroke-width:1.546;stroke-miterlimit:10;}
	.st13{clip-path:url(#SVGID_26_);fill:none;stroke:#009CB4;stroke-width:1.546;stroke-miterlimit:10;}
	.st14{clip-path:url(#SVGID_28_);fill:none;stroke:#009CB4;stroke-width:1.546;stroke-miterlimit:10;}
</style>
<polygon class="st0" points="-3319.9,3527 -3330.2,3527 -3330.2,3553.3 -3332.2,3553.3 -3332.2,3527 -3342.5,3527 -3342.5,3525.2 
	-3319.9,3525.2 "/>
<g>
	<g>
		<g>
			<defs>
				<rect id="SVGID_1_" x="-3383" y="3522" width="309.7" height="43.3"/>
			</defs>
			<clipPath id="SVGID_2_">
				<use xlink:href="#SVGID_1_"  style="overflow:visible;"/>
			</clipPath>
			<path class="st1" d="M-3299.2,3553.3h-2v-11.5c0-5.1-1.8-7.6-5.1-7.6c-3.4,0-6.8,2.7-7.8,6.4v12.7h-2v-28.9h2v13.2
				c1.7-3.2,4.9-5.3,8.3-5.3c4.6,0,6.5,3.5,6.5,9.1v11.9H-3299.2L-3299.2,3553.3z"/>
		</g>
	</g>
	<g>
		<g>
			<defs>
				<rect id="SVGID_3_" x="-3383" y="3522" width="309.7" height="43.3"/>
			</defs>
			<clipPath id="SVGID_4_">
				<use xlink:href="#SVGID_3_"  style="overflow:visible;"/>
			</clipPath>
			<path class="st2" d="M-3294.7,3542.9c0-5.8,4.4-10.6,10.1-10.6c5.8,0,10.1,4.8,10.1,10.6c0,0.3,0,0.8,0,0.9h-18.1
				c0.4,4.8,3.9,8.3,8.2,8.3c2.9,0,5.7-1.6,6.7-4l1.7,0.5c-1.2,2.9-4.7,5.1-8.6,5.1C-3290.3,3553.7-3294.7,3548.8-3294.7,3542.9
				 M-3276.5,3542.2c-0.4-4.8-3.8-8.2-8.2-8.2c-4.3,0-7.8,3.4-8.1,8.2H-3276.5z"/>
		</g>
	</g>
	<g>
		<g>
			<defs>
				<rect id="SVGID_5_" x="-3383" y="3522" width="309.7" height="43.3"/>
			</defs>
			<clipPath id="SVGID_6_">
				<use xlink:href="#SVGID_5_"  style="overflow:visible;"/>
			</clipPath>
			<path class="st3" d="M-3260.5,3534.5c-3.7,0.1-6.7,2.3-7.8,5.9v12.9h-2v-20.6h1.9v5.1c1.4-2.9,4-4.8,6.6-5.1c0.5,0,0.9,0,1.3,0
				V3534.5z"/>
		</g>
	</g>
	<g>
		<g>
			<defs>
				<rect id="SVGID_7_" x="-3383" y="3522" width="309.7" height="43.3"/>
			</defs>
			<clipPath id="SVGID_8_">
				<use xlink:href="#SVGID_7_"  style="overflow:visible;"/>
			</clipPath>
			<path class="st4" d="M-3226.4,3553.3h-2v-11.5c0-5.2-1.6-7.6-4.9-7.6c-3.4,0-6.2,2.7-7.2,6.4v12.7h-2v-11.5
				c0-5.3-1.6-7.6-4.9-7.6c-3.4,0-6.2,2.6-7.3,6.4v12.7h-2v-20.6h1.8v4.9c1.7-3.3,4.6-5.3,7.9-5.3c3.4,0,5.7,2.3,6.1,5.6
				c2-3.7,4.7-5.6,8.1-5.6c4.5,0,6.3,3.4,6.3,9.1L-3226.4,3553.3L-3226.4,3553.3z"/>
		</g>
	</g>
	<g>
		<g>
			<defs>
				<rect id="SVGID_9_" x="-3383" y="3522" width="309.7" height="43.3"/>
			</defs>
			<clipPath id="SVGID_10_">
				<use xlink:href="#SVGID_9_"  style="overflow:visible;"/>
			</clipPath>
			<path class="st5" d="M-3222.3,3547.3c0-3.6,3.6-6.1,8.6-6.1c2.2,0,4.6,0.4,6.4,1.1v-2c0-3.9-2.4-6.4-6.2-6.4
				c-2.1,0-4.4,0.9-6.6,2.5l-0.8-1.3c2.7-1.8,5.1-2.7,7.5-2.7c5,0,8,3.1,8,8.1v10.1c0,0.7,0.3,1,0.8,1v1.8c-0.3,0-0.5,0-0.7,0
				c-0.9,0-1.9-0.7-1.9-1.8v-1.7c-1.9,2.5-5,3.8-8.4,3.8C-3219.3,3553.7-3222.3,3550.9-3222.3,3547.3 M-3208,3549
				c0.4-0.5,0.7-1.1,0.7-1.6v-3.6c-1.9-0.7-4-1.1-6.2-1.1c-4.1,0-6.9,1.9-6.9,4.6c0,2.8,2.3,4.9,5.3,4.9
				C-3212,3552.1-3209.2,3550.9-3208,3549"/>
		</g>
	</g>
	<g>
		<g>
			<defs>
				<rect id="SVGID_11_" x="-3383" y="3522" width="309.7" height="43.3"/>
			</defs>
			<clipPath id="SVGID_12_">
				<use xlink:href="#SVGID_11_"  style="overflow:visible;"/>
			</clipPath>
			<polygon class="st6" points="-3179.9,3551.5 -3179.9,3553.3 -3198.6,3553.3 -3198.6,3525.2 -3180.2,3525.2 -3180.2,3527 
				-3196.6,3527 -3196.6,3538.1 -3182.3,3538.1 -3182.3,3539.8 -3196.6,3539.8 -3196.6,3551.5 			"/>
		</g>
	</g>
	<g>
		<g>
			<defs>
				<rect id="SVGID_13_" x="-3383" y="3522" width="309.7" height="43.3"/>
			</defs>
			<clipPath id="SVGID_14_">
				<use xlink:href="#SVGID_13_"  style="overflow:visible;"/>
			</clipPath>
			<path class="st7" d="M-3175.7,3544.6v-11.9h2v11.6c0,5.1,1.7,7.6,5.2,7.6s6.8-2.5,8-6.2v-13h2v17.8c0,0.6,0.2,1,0.8,1v1.8
				c-0.3,0-0.5,0-0.7,0c-1.1,0-1.9-0.8-1.9-1.8v-3.1c-1.8,3.3-5.2,5.3-8.8,5.3C-3173.4,3553.7-3175.7,3550.6-3175.7,3544.6"/>
		</g>
	</g>
	<g>
		<g>
			<defs>
				<rect id="SVGID_15_" x="-3383" y="3522" width="309.7" height="43.3"/>
			</defs>
			<clipPath id="SVGID_16_">
				<use xlink:href="#SVGID_15_"  style="overflow:visible;"/>
			</clipPath>
			<path class="st8" d="M-3142.5,3534.5c-3.7,0.1-6.7,2.3-7.8,5.9v12.9h-2v-20.6h1.9v5.1c1.4-2.9,4-4.8,6.6-5.1c0.5,0,0.9,0,1.3,0
				V3534.5z"/>
		</g>
	</g>
	<g>
		<g>
			<defs>
				<rect id="SVGID_17_" x="-3383" y="3522" width="309.7" height="43.3"/>
			</defs>
			<clipPath id="SVGID_18_">
				<use xlink:href="#SVGID_17_"  style="overflow:visible;"/>
			</clipPath>
			<path class="st9" d="M-3141.2,3543.1c0-5.8,4.4-10.7,10.1-10.7c5.7,0,10.1,4.9,10.1,10.7c0,5.7-4.4,10.6-10.1,10.6
				C-3136.9,3553.7-3141.2,3548.8-3141.2,3543.1 M-3131.1,3551.9c4.4,0,8.1-4,8.1-8.9c0-4.8-3.7-8.9-8.1-8.9c-4.4,0-8,4.1-8,9
				C-3139.2,3548-3135.6,3551.9-3131.1,3551.9"/>
		</g>
	</g>
	<g>
		<g>
			<defs>
				<rect id="SVGID_19_" x="-3383" y="3522" width="309.7" height="43.3"/>
			</defs>
			<clipPath id="SVGID_20_">
				<use xlink:href="#SVGID_19_"  style="overflow:visible;"/>
			</clipPath>
			<path class="st10" d="M-3114.4,3548.9v12.9h-2v-29h1.8v4.1c1.7-2.6,4.7-4.5,7.8-4.5c5.7,0,9.8,5.3,9.8,10.7
				c0,5.7-3.8,10.6-9.4,10.6C-3109.9,3553.7-3112.7,3551.6-3114.4,3548.9 M-3098.9,3543.1c0-4.7-3.6-8.9-8.2-8.9
				c-2.9,0-6.9,2.6-7.2,5.5v6.8c1.3,3,4.3,5.5,7.6,5.5C-3102,3551.9-3098.9,3547.5-3098.9,3543.1"/>
		</g>
	</g>
	<g>
		<g>
			<defs>
				<rect id="SVGID_21_" x="-3383" y="3522" width="309.7" height="43.3"/>
			</defs>
			<clipPath id="SVGID_22_">
				<use xlink:href="#SVGID_21_"  style="overflow:visible;"/>
			</clipPath>
			<path class="st11" d="M-3093.6,3542.9c0-5.8,4.4-10.6,10.1-10.6c5.8,0,10.1,4.8,10.1,10.6c0,0.3,0,0.8,0,0.9h-18.1
				c0.4,4.8,3.9,8.3,8.2,8.3c2.9,0,5.7-1.6,6.7-4l1.7,0.5c-1.2,2.9-4.7,5.1-8.6,5.1C-3089.2,3553.7-3093.6,3548.8-3093.6,3542.9
				 M-3075.3,3542.2c-0.4-4.8-3.8-8.2-8.2-8.2c-4.3,0-7.8,3.4-8.1,8.2H-3075.3z"/>
		</g>
	</g>
	<g>
		<g>
			<defs>
				<rect id="SVGID_23_" x="-3383" y="3522" width="309.7" height="43.3"/>
			</defs>
			<clipPath id="SVGID_24_">
				<use xlink:href="#SVGID_23_"  style="overflow:visible;"/>
			</clipPath>
			<path class="st12" d="M-3358.6,3526c0,0-12.5,2-12.9,12.7c-0.4,10.5-4.3,12.8-9.7,16"/>
		</g>
	</g>
	<g>
		<g>
			<defs>
				<rect id="SVGID_25_" x="-3383" y="3522" width="309.7" height="43.3"/>
			</defs>
			<clipPath id="SVGID_26_">
				<use xlink:href="#SVGID_25_"  style="overflow:visible;"/>
			</clipPath>
			<path class="st13" d="M-3352,3531.2c0,0-12.5,2-12.9,12.7c-0.4,10.5-4.3,12.8-9.7,16"/>
		</g>
	</g>
	<g>
		<g>
			<defs>
				<rect id="SVGID_27_" x="-3383" y="3522" width="309.7" height="43.3"/>
			</defs>
			<clipPath id="SVGID_28_">
				<use xlink:href="#SVGID_27_"  style="overflow:visible;"/>
			</clipPath>
			<path class="st14" d="M-3345.5,3535.8c0,0-12.5,2-12.9,12.7c-0.4,10.5-4.3,12.8-9.7,16"/>
		</g>
	</g>
</g>
</svg>
