<?xml version="1.0" encoding="utf-8"?>
<!-- Generator: Adobe Illustrator 16.0.0, SVG Export Plug-In . SVG Version: 6.00 Build 0)  -->
<!DOCTYPE svg PUBLIC "-//W3C//DTD SVG 1.1 Tiny//EN" "http://www.w3.org/Graphics/SVG/1.1/DTD/svg11-tiny.dtd">
<svg xmlns="http://www.w3.org/2000/svg" xmlns:xlink="http://www.w3.org/1999/xlink" version="1.1" baseProfile="tiny" id="Layer_1" x="0px" y="0px" width="512px" height="512px" viewBox="0 0 24 24" xml:space="preserve">
<g>
	<path d="M8.142,12.446c-0.359,0.066-0.671,0.268-0.88,0.567c-0.209,0.301-0.288,0.665-0.222,1.022   c0.119,0.652,0.683,1.125,1.342,1.125c0.082,0,0.165-0.007,0.249-0.022c0.742-0.137,1.236-0.854,1.101-1.598   C9.599,12.813,8.899,12.306,8.142,12.446z M8.486,14.352c-0.312,0.061-0.603-0.153-0.659-0.459   C7.8,13.745,7.833,13.595,7.919,13.47c0.087-0.125,0.217-0.209,0.368-0.236c0.035-0.007,0.07-0.01,0.104-0.01   c0.272,0,0.505,0.194,0.555,0.461C9.002,13.995,8.796,14.295,8.486,14.352z" fill="#FFFFFF"/>
	<path d="M21.952,5.973c-0.644-0.091-0.644-0.091-0.901-0.483c-0.292-0.452-0.292-0.452-0.127-1.112   c0.265-1.073,0.271-1.449-0.675-1.793c-0.22-0.076-0.417-0.141-0.609-0.141c-0.546,0-0.771,0.482-1.03,1.037   c-0.319,0.67-0.319,0.67-0.765,0.797c-0.398,0.112-0.314,0.179-0.993-0.253c-0.478-0.305-0.79-0.49-1.1-0.49   c-0.404,0-0.642,0.307-0.831,0.549c-0.596,0.751-0.442,1.109,0.355,1.875c0.503,0.484,0.502,0.494,0.488,0.986   c-0.016,0.382-0.018,0.413-0.598,0.884c-0.807,0.658-1.058,0.988-0.483,1.854c0.175,0.266,0.393,0.596,0.831,0.596   c0.276,0,0.569-0.13,1.086-0.405c0.587-0.321,0.573-0.288,1.076-0.104c0.406,0.141,0.406,0.141,0.691,0.847   c0.237,0.589,0.441,1.097,1.02,1.097c0.162,0,0.331-0.04,0.568-0.11c0.963-0.285,0.98-0.656,0.782-1.73   c-0.13-0.685-0.13-0.685,0.126-0.999c0.309-0.375,0.309-0.375,0.953-0.409c1.088-0.052,1.503-0.171,1.548-1.216   C23.41,6.283,22.992,6.125,21.952,5.973z M22.564,7.212c-0.009,0.207-0.024,0.33-0.036,0.356c-0.089,0.064-0.587,0.089-0.753,0.097   c-0.876,0.047-1.062,0.131-1.532,0.701c-0.453,0.557-0.459,0.777-0.293,1.652c0.044,0.237,0.117,0.633,0.109,0.695   c-0.045,0.037-0.253,0.099-0.331,0.121c-0.083,0.024-0.255,0.075-0.336,0.078c-0.079-0.087-0.221-0.44-0.283-0.596   c-0.353-0.873-0.482-1.065-1.165-1.301c-0.322-0.119-0.54-0.184-0.767-0.184c-0.319,0-0.576,0.128-0.958,0.335   c-0.159,0.085-0.582,0.311-0.685,0.318c-0.043-0.028-0.15-0.19-0.186-0.244c-0.118-0.178-0.18-0.289-0.186-0.314   c0.033-0.094,0.365-0.364,0.506-0.479c0.686-0.556,0.863-0.772,0.892-1.476c0.023-0.747-0.073-0.955-0.732-1.591   c-0.296-0.285-0.455-0.466-0.472-0.522c0.008-0.037,0.071-0.131,0.191-0.282c0.114-0.146,0.189-0.23,0.201-0.243   c0.105,0.005,0.501,0.257,0.67,0.365c0.454,0.288,0.727,0.451,1.08,0.451c0.185,0,0.364-0.047,0.563-0.104   c0.73-0.209,0.871-0.39,1.269-1.226c0.068-0.145,0.247-0.528,0.307-0.578c0.071,0,0.256,0.065,0.341,0.095   c0.097,0.035,0.276,0.101,0.298,0.106c0.027,0.103-0.083,0.55-0.13,0.74c-0.22,0.883-0.221,1.036,0.233,1.74   c0.42,0.643,0.621,0.722,1.458,0.84c0.427,0.063,0.673,0.119,0.719,0.151C22.569,6.948,22.572,7.047,22.564,7.212z" fill="#FFFFFF"/>
	<path d="M7.755,10.341c-1.896,0.35-3.161,2.181-2.82,4.083c0.306,1.668,1.755,2.879,3.445,2.879c0.21,0,0.424-0.02,0.639-0.059   c1.896-0.35,3.161-2.181,2.82-4.082C11.5,11.288,9.7,9.989,7.755,10.341z M8.874,16.457c-1.494,0.276-2.886-0.729-3.151-2.176   c-0.264-1.469,0.713-2.884,2.178-3.153c0.166-0.03,0.331-0.045,0.493-0.045c1.309,0,2.426,0.934,2.659,2.221   C11.315,14.772,10.338,16.188,8.874,16.457z" fill="#FFFFFF"/>
	<path d="M14.864,11.347c-0.202,0-0.458,0.018-0.784,0.045c-0.187,0.014-0.337,0.022-0.463,0.022c-0.303,0-0.321,0-0.604-0.463   c-0.323-0.521-0.323-0.521,0.127-1.329c0.611-1.104,0.724-1.521-0.28-2.213c-0.284-0.198-0.525-0.349-0.814-0.349   c-0.456,0-0.799,0.377-1.32,0.991c-0.418,0.491-0.502,0.538-0.622,0.538c-0.111,0-0.286-0.04-0.489-0.088   C9.053,8.373,9.053,8.373,8.813,7.546c-0.248-0.872-0.426-1.502-1.19-1.502c-0.145,0-0.322,0.024-0.542,0.065   C5.895,6.32,5.872,6.735,5.979,8.012C6.047,8.854,6.047,8.854,5.516,9.18C5.271,9.334,5.138,9.407,5.04,9.407   c-0.141,0-0.398-0.128-0.793-0.347c-0.579-0.324-0.931-0.489-1.25-0.489c-0.48,0-0.731,0.364-0.954,0.687   c-0.675,0.985-0.411,1.339,0.581,2.174c0.62,0.531,0.62,0.531,0.486,1.079c-0.148,0.614-0.148,0.614-0.992,0.855   c-1.25,0.36-1.636,0.571-1.422,1.698c0.131,0.73,0.28,1.174,1.224,1.174c0.189,0,0.427-0.015,0.726-0.038   c0.196-0.015,0.355-0.024,0.487-0.024c0.319,0,0.346,0,0.626,0.458c0.324,0.522,0.324,0.522-0.092,1.278   c-0.67,1.198-0.737,1.575,0.212,2.24c0.304,0.209,0.561,0.369,0.855,0.369c0.45-0.001,0.766-0.35,1.281-0.961   c0.432-0.497,0.534-0.571,0.661-0.571c0.105,0,0.273,0.037,0.449,0.079c0.602,0.146,0.602,0.146,0.829,0.954   c0.243,0.847,0.434,1.516,1.223,1.516c0.14,0,0.308-0.021,0.521-0.06c1.175-0.228,1.199-0.687,1.096-1.98   c-0.066-0.769-0.066-0.769,0.447-1.086c0.256-0.159,0.388-0.229,0.489-0.229c0.146,0,0.409,0.128,0.813,0.351   c0.522,0.286,0.89,0.475,1.226,0.475c0.492,0,0.763-0.393,0.981-0.71c0.658-0.961,0.392-1.313-0.603-2.153   c-0.615-0.519-0.615-0.519-0.477-1.114c0.135-0.572,0.135-0.572,0.93-0.798c1.357-0.393,1.679-0.619,1.47-1.782   C15.951,11.804,15.795,11.347,14.864,11.347z M14.38,13.463c-1.01,0.288-1.269,0.45-1.488,1.385   c-0.217,0.934-0.12,1.183,0.739,1.908c0.764,0.645,0.764,0.645,0.46,1.089c-0.068,0.1-0.25,0.362-0.322,0.362   c-0.156,0-0.584-0.234-0.84-0.375c-0.565-0.311-0.873-0.449-1.198-0.449c-0.322,0-0.569,0.138-0.91,0.349   c-0.801,0.495-0.917,0.752-0.824,1.833c0.082,1.025,0.082,1.025-0.444,1.128c-0.151,0.026-0.273,0.045-0.376,0.045   c-0.12,0-0.186,0-0.454-0.934c-0.3-1.065-0.431-1.274-1.411-1.514c-0.234-0.055-0.444-0.102-0.636-0.102   c-0.527,0-0.82,0.337-1.268,0.852c-0.167,0.198-0.56,0.664-0.674,0.681c-0.069,0-0.32-0.172-0.399-0.227   c-0.458-0.32-0.458-0.32,0.031-1.193c0.529-0.962,0.593-1.247,0.074-2.087c-0.349-0.57-0.592-0.839-1.308-0.839   c-0.149,0-0.329,0.011-0.549,0.028c-0.274,0.021-0.49,0.035-0.664,0.035c-0.259,0-0.311-0.035-0.312-0.036   c-0.047-0.048-0.1-0.34-0.125-0.483c-0.048-0.255-0.063-0.404-0.045-0.443c0.063-0.099,0.651-0.268,0.901-0.34   c1.096-0.313,1.311-0.448,1.549-1.436c0.229-0.937,0.076-1.175-0.745-1.878c-0.762-0.642-0.762-0.642-0.439-1.111   c0.076-0.11,0.234-0.339,0.294-0.339c0.168,0,0.635,0.261,0.86,0.387c0.558,0.31,0.861,0.448,1.183,0.448   c0.321,0,0.577-0.146,0.899-0.348c0.864-0.531,0.927-0.816,0.838-1.913C6.749,7.613,6.707,7.109,6.763,7.02   c0.035-0.033,0.189-0.075,0.46-0.123c0.164-0.03,0.293-0.053,0.4-0.053c0.096,0,0.159,0,0.421,0.923   C8.35,8.821,8.503,9.068,9.433,9.28C9.692,9.343,9.906,9.39,10.104,9.39c0.509,0,0.786-0.296,1.231-0.819   c0.161-0.189,0.587-0.693,0.71-0.71c0.042,0,0.162,0.069,0.359,0.206c0.493,0.341,0.493,0.341,0.036,1.168   c-0.567,1.018-0.632,1.29-0.109,2.137c0.351,0.573,0.591,0.843,1.285,0.843c0.142,0,0.312-0.01,0.526-0.025   c0.301-0.024,0.537-0.041,0.721-0.041c0.254,0,0.305,0.035,0.307,0.036c0.045,0.045,0.096,0.321,0.113,0.409   C15.388,13.172,15.388,13.172,14.38,13.463z" fill="#FFFFFF"/>
</g>
</svg>
