<?xml version="1.0" encoding="iso-8859-1"?>
<!-- Generator: Adobe Illustrator 19.0.0, SVG Export Plug-In . SVG Version: 6.00 Build 0)  -->
<svg xmlns="http://www.w3.org/2000/svg" xmlns:xlink="http://www.w3.org/1999/xlink" version="1.1" id="Layer_1" x="0px" y="0px" viewBox="0 0 511.999 511.999" style="enable-background:new 0 0 511.999 511.999;" xml:space="preserve" width="512px" height="512px">
<g>
	<g>
		<path d="M291.136,342.392c19.204-11.834,32.037-33.054,32.037-57.219v-25.674v-25.659c0-37.037-30.131-67.169-67.169-67.169    c-37.037,0-67.169,30.132-67.169,67.169v25.666v25.666c0,24.165,12.832,45.384,32.037,57.219    c-55.325,15.855-97.204,66.045-97.204,123.019v39.072c0,4.151,3.365,7.517,7.517,7.517h50.636c4.151,0,7.517-3.365,7.517-7.517    c0-4.151-3.365-7.517-7.517-7.517H138.7V465.41c0-29.439,12.562-57.586,35.372-79.258c13.635-12.955,30.143-22.606,47.755-28.237    l11.906,23.132l-15.996,69.438c-0.608,2.64,0.252,5.403,2.25,7.232l30.942,28.319c1.436,1.314,3.255,1.971,5.074,1.971    c1.819,0,3.639-0.657,5.074-1.971l30.942-28.319c1.998-1.829,2.858-4.592,2.25-7.232l-15.996-69.439l11.906-23.131    c17.612,5.631,34.119,15.283,47.755,28.237c22.81,21.672,35.372,49.82,35.372,79.258v31.556H206.874    c-4.151,0-7.517,3.365-7.517,7.517c0,4.151,3.365,7.517,7.517,7.517h173.95c4.151,0,7.517-3.365,7.517-7.517V465.41    C388.339,408.437,346.461,358.247,291.136,342.392z M203.867,233.841c0-28.747,23.389-52.136,52.136-52.136    c28.748,0,52.136,23.389,52.136,52.136v17.426c-23.628-4.484-33.2-28.529-33.626-29.629c-1.042-2.752-3.595-4.641-6.531-4.837    c-2.937-0.198-5.716,1.341-7.113,3.931c-0.159,0.295-15.563,27.94-57.002,30.986V233.841z M278.636,449.589l-22.634,20.715    l-22.633-20.715l14.287-62.019h16.692L278.636,449.589z M236.797,354.152c0.626-0.115,1.254-0.222,1.881-0.328    c0.421-0.069,0.842-0.138,1.264-0.203c0.928-0.145,1.857-0.279,2.788-0.401c0.935-0.121,1.871-0.236,2.808-0.335    c0.499-0.053,0.998-0.104,1.497-0.151c1.268-0.117,2.537-0.219,3.804-0.295c0.303-0.018,0.606-0.031,0.909-0.047    c0.867-0.045,1.733-0.067,2.6-0.092c0.552,0.013,1.1,0.042,1.655,0.042c0.555,0,1.103-0.029,1.655-0.042    c0.866,0.025,1.733,0.048,2.6,0.092c0.303,0.016,0.606,0.029,0.91,0.047c1.268,0.075,2.537,0.177,3.804,0.295    c0.499,0.047,0.998,0.098,1.497,0.151c0.937,0.099,1.872,0.214,2.808,0.335c0.93,0.122,1.86,0.257,2.788,0.401    c0.422,0.065,0.843,0.134,1.264,0.203c0.627,0.105,1.255,0.212,1.881,0.328l-9.465,18.385H246.26L236.797,354.152z     M258.017,337.257c-0.636-0.018-1.272-0.041-1.911-0.05c-0.068-0.001-0.137-0.001-0.205,0c-0.638,0.009-1.274,0.032-1.91,0.05    c-27.817-1.062-50.123-24.012-50.123-52.084v-18.389c33.199-2.081,52.799-17.672,62.531-28.493    c6.849,10.641,20.036,25.313,41.741,28.211v18.67C308.139,313.245,285.834,336.194,258.017,337.257z" fill="#FFFFFF"/>
	</g>
</g>
<g>
	<g>
		<path d="M171.446,108.464c-1.666-5.127-6.014-8.794-11.35-9.569l-34.178-4.966l-15.285-30.97    c-2.385-4.834-7.217-7.837-12.608-7.837c-5.39,0-10.222,3.004-12.607,7.837L70.137,93.928l-34.178,4.966    c-5.335,0.775-9.683,4.442-11.349,9.569c-1.666,5.126-0.302,10.648,3.558,14.411l24.732,24.107l-5.839,34.04    c-0.911,5.313,1.232,10.582,5.593,13.75c2.464,1.79,5.348,2.7,8.25,2.7c2.234,0,4.481-0.539,6.556-1.631l30.569-16.071    l30.568,16.071c4.772,2.51,10.444,2.1,14.806-1.069s6.504-8.437,5.592-13.75l-5.839-34.039l24.732-24.107    C171.749,119.113,173.112,113.59,171.446,108.464z M132.298,136.573c-3.313,3.23-4.825,7.881-4.044,12.444l5.591,32.599    l-29.276-15.391c-4.096-2.153-8.988-2.154-13.084,0L62.21,181.616l5.591-32.599c0.783-4.562-0.73-9.214-4.044-12.444    l-23.684-23.087l32.731-4.756c4.579-0.665,8.537-3.54,10.586-7.69L98.028,71.38l14.637,29.659c2.049,4.15,6.005,7.025,10.585,7.69    l32.731,4.756L132.298,136.573z" fill="#FFFFFF"/>
	</g>
</g>
<g>
	<g>
		<path d="M329.566,53.343c-1.666-5.126-6.014-8.793-11.349-9.568l-34.178-4.967l-15.286-30.97C266.367,3.004,261.536,0,256.145,0    c-5.391,0-10.222,3.004-12.608,7.837l-15.285,30.97l-34.178,4.967c-5.335,0.775-9.683,4.442-11.348,9.568    c-1.666,5.126-0.303,10.648,3.557,14.412l24.733,24.106l-5.838,34.04c-0.911,5.313,1.232,10.582,5.593,13.75    c4.361,3.169,10.033,3.579,14.806,1.07l30.569-16.071l30.57,16.071c2.076,1.09,4.321,1.63,6.554,1.63c2.902,0,5.786-0.91,8.25-2.7    c4.362-3.169,6.504-8.438,5.593-13.75l-5.838-34.039l24.732-24.107C329.868,63.992,331.231,58.469,329.566,53.343z     M290.415,81.454c-3.314,3.231-4.826,7.883-4.044,12.444l5.591,32.599l-29.277-15.392c-2.048-1.076-4.294-1.615-6.54-1.615    c-2.247,0-4.494,0.539-6.542,1.615l-29.276,15.391l5.591-32.598c0.783-4.562-0.73-9.214-4.043-12.444l-23.684-23.087l32.73-4.756    c4.58-0.666,8.538-3.541,10.585-7.691l14.637-29.659l14.637,29.658c2.049,4.151,6.005,7.026,10.586,7.692l32.731,4.756    L290.415,81.454z" fill="#FFFFFF"/>
	</g>
</g>
<g>
	<g>
		<path d="M487.39,108.463c-1.666-5.127-6.014-8.793-11.349-9.569l-34.178-4.966l-15.284-30.97    c-2.385-4.834-7.217-7.837-12.608-7.837s-10.222,3.004-12.608,7.837l-15.284,30.97L351.9,98.894    c-5.335,0.775-9.683,4.442-11.349,9.569c-1.666,5.127-0.302,10.649,3.558,14.411l24.732,24.107l-5.838,34.04    c-0.911,5.313,1.232,10.582,5.593,13.75c2.464,1.79,5.347,2.7,8.25,2.7c2.234,0,4.48-0.539,6.555-1.631l30.569-16.071    l30.569,16.07c4.77,2.509,10.444,2.099,14.806-1.069c4.362-3.169,6.504-8.438,5.593-13.75l-5.838-34.04l24.731-24.107    C487.692,119.113,489.055,113.59,487.39,108.463z M448.241,136.573c-3.314,3.231-4.826,7.882-4.044,12.444l5.591,32.599    l-29.275-15.39c-2.049-1.077-4.295-1.617-6.543-1.617c-2.247,0-4.494,0.539-6.542,1.616l-29.276,15.391l5.591-32.598    c0.783-4.562-0.729-9.214-4.043-12.444l-23.684-23.087l32.732-4.756c4.58-0.665,8.537-3.541,10.585-7.69l14.637-29.66    l14.638,29.661c2.049,4.149,6.005,7.023,10.584,7.689l32.731,4.756L448.241,136.573z" fill="#FFFFFF"/>
	</g>
</g>
<g>
</g>
<g>
</g>
<g>
</g>
<g>
</g>
<g>
</g>
<g>
</g>
<g>
</g>
<g>
</g>
<g>
</g>
<g>
</g>
<g>
</g>
<g>
</g>
<g>
</g>
<g>
</g>
<g>
</g>
</svg>
